<svg width="108" height="149" viewBox="0 0 108 149" fill="none" xmlns="http://www.w3.org/2000/svg">
<path d="M53.5 0C27.2625 0 6 21.2625 6 47.5C6 73.7375 27.2625 95 53.5 95C79.7375 95 101 73.7375 101 47.5C101 21.2625 79.7375 0 53.5 0ZM53.5 19.2188C58.7847 19.2188 63.0578 23.492 63.0578 28.7766C63.0578 34.0613 58.7847 38.3344 53.5 38.3344C48.2153 38.3344 43.9422 34.0613 43.9422 28.7766C43.9422 23.492 48.2153 19.2188 53.5 19.2188ZM74.2051 53.342L67.0832 60.4639L53.5 74.0472L39.9168 60.4639L32.7949 53.342C29.0378 49.585 29.0378 43.4952 32.7949 39.7588C36.5519 36.0017 42.6417 36.0017 46.3781 39.7588L53.5 46.8807L60.6219 39.7588C64.379 36.0017 70.4687 36.0017 74.2051 39.7588C77.9622 43.5159 77.9622 49.6056 74.2051 53.342Z" fill="#EC5E90"/>
<path d="M16.3509 122.1C16.0842 122.1 15.8442 122.027 15.6309 121.88C15.4309 121.72 15.2775 121.493 15.1709 121.2L11.2509 109.16C11.2109 109.013 11.1909 108.9 11.1909 108.82C11.1775 108.567 11.2509 108.36 11.4109 108.2C11.5842 108.027 11.8042 107.94 12.0709 107.94C12.2842 107.94 12.4709 108.007 12.6309 108.14C12.7909 108.273 12.9042 108.447 12.9709 108.66L16.3309 119.7L19.7109 108.7C19.7775 108.473 19.9042 108.293 20.0909 108.16C20.2909 108.013 20.5109 107.94 20.7509 107.94C20.9909 107.94 21.2042 108.013 21.3909 108.16C21.5909 108.293 21.7242 108.473 21.7909 108.7L25.1709 119.7L28.5309 108.66C28.5975 108.447 28.7109 108.273 28.8709 108.14C29.0309 108.007 29.2175 107.94 29.4309 107.94C29.6975 107.94 29.9109 108.027 30.0709 108.2C30.2442 108.36 30.3242 108.567 30.3109 108.82C30.3109 108.9 30.2909 109.013 30.2509 109.16L26.3309 121.2C26.2242 121.493 26.0642 121.72 25.8509 121.88C25.6509 122.027 25.4175 122.1 25.1509 122.1C24.8842 122.1 24.6375 122.02 24.4109 121.86C24.1975 121.687 24.0509 121.467 23.9709 121.2L20.7509 111L17.5309 121.2C17.4509 121.467 17.2975 121.687 17.0709 121.86C16.8575 122.02 16.6175 122.1 16.3509 122.1ZM38.9657 122.2C37.5657 122.2 36.339 121.893 35.2857 121.28C34.2324 120.667 33.419 119.82 32.8457 118.74C32.2724 117.66 31.9724 116.42 31.9457 115.02C31.9724 113.62 32.2724 112.38 32.8457 111.3C33.419 110.22 34.2324 109.373 35.2857 108.76C36.339 108.147 37.5657 107.84 38.9657 107.84C40.3657 107.84 41.5857 108.147 42.6257 108.76C43.679 109.373 44.4924 110.227 45.0657 111.32C45.6524 112.4 45.959 113.633 45.9857 115.02C45.959 116.407 45.6524 117.647 45.0657 118.74C44.4924 119.82 43.679 120.667 42.6257 121.28C41.5857 121.893 40.3657 122.2 38.9657 122.2ZM38.9657 120.5C40.0324 120.5 40.959 120.26 41.7457 119.78C42.5324 119.3 43.1324 118.647 43.5457 117.82C43.959 116.993 44.1657 116.06 44.1657 115.02C44.1657 113.98 43.959 113.047 43.5457 112.22C43.1324 111.393 42.5324 110.74 41.7457 110.26C40.959 109.78 40.0324 109.54 38.9657 109.54C37.8857 109.54 36.9524 109.78 36.1657 110.26C35.3924 110.74 34.799 111.393 34.3857 112.22C33.9724 113.047 33.7657 113.98 33.7657 115.02C33.7657 116.06 33.9724 116.993 34.3857 117.82C34.799 118.647 35.3924 119.3 36.1657 119.78C36.9524 120.26 37.8857 120.5 38.9657 120.5ZM49.9162 122.1C49.6628 122.1 49.4495 122.013 49.2762 121.84C49.1028 121.667 49.0162 121.453 49.0162 121.2V109.26C49.0162 108.9 49.1428 108.593 49.3962 108.34C49.6495 108.073 49.9562 107.94 50.3162 107.94H50.9762C51.2428 107.94 51.4828 108.02 51.6962 108.18C51.9228 108.34 52.0895 108.54 52.1962 108.78L56.7362 120.1L61.2762 108.78C61.3828 108.54 61.5428 108.34 61.7562 108.18C61.9828 108.02 62.2295 107.94 62.4962 107.94H63.1562C63.5162 107.94 63.8228 108.073 64.0762 108.34C64.3295 108.593 64.4562 108.9 64.4562 109.26V121.2C64.4562 121.453 64.3695 121.667 64.1962 121.84C64.0228 122.013 63.8095 122.1 63.5562 122.1C63.3028 122.1 63.0828 122.013 62.8962 121.84C62.7228 121.667 62.6362 121.453 62.6362 121.2V109.84L58.0162 121.26C57.9095 121.513 57.7362 121.72 57.4962 121.88C57.2695 122.027 57.0162 122.1 56.7362 122.1C56.4562 122.1 56.1962 122.027 55.9562 121.88C55.7295 121.72 55.5628 121.513 55.4562 121.26L50.8362 109.84V121.2C50.8362 121.453 50.7428 121.667 50.5562 121.84C50.3828 122.013 50.1695 122.1 49.9162 122.1ZM68.2926 122.1C68.0259 122.1 67.8059 122.013 67.6326 121.84C67.4726 121.667 67.3926 121.453 67.3926 121.2C67.3926 121.093 67.4259 120.96 67.4926 120.8L72.5926 108.76C72.6992 108.52 72.8459 108.327 73.0326 108.18C73.2326 108.02 73.4726 107.94 73.7526 107.94H73.9526C74.2326 107.94 74.4659 108.02 74.6526 108.18C74.8526 108.327 75.0059 108.52 75.1126 108.76L80.2126 120.8C80.2792 120.96 80.3126 121.093 80.3126 121.2C80.3126 121.453 80.2259 121.667 80.0526 121.84C79.8926 122.013 79.6792 122.1 79.4126 122.1C79.2259 122.1 79.0526 122.053 78.8926 121.96C78.7459 121.853 78.6326 121.713 78.5526 121.54L77.2526 118.42H70.4526L69.1526 121.54C69.0726 121.713 68.9526 121.853 68.7926 121.96C68.6459 122.053 68.4792 122.1 68.2926 122.1ZM71.1526 116.76H76.5526L73.8526 110.26L71.1526 116.76ZM84.1545 122.1C83.9011 122.1 83.6878 122.013 83.5145 121.84C83.3411 121.667 83.2545 121.453 83.2545 121.2V109.26C83.2545 108.9 83.3811 108.593 83.6345 108.34C83.8878 108.073 84.1945 107.94 84.5545 107.94H84.8145C85.2411 107.94 85.6078 108.14 85.9145 108.54L93.6145 119.66V108.86C93.6145 108.607 93.7011 108.393 93.8745 108.22C94.0478 108.033 94.2611 107.94 94.5145 107.94C94.7678 107.94 94.9811 108.033 95.1545 108.22C95.3411 108.393 95.4345 108.607 95.4345 108.86V120.8C95.4345 121.16 95.3011 121.467 95.0345 121.72C94.7811 121.973 94.4745 122.1 94.1145 122.1H93.8745C93.6611 122.1 93.4611 122.053 93.2745 121.96C93.0878 121.853 92.9345 121.72 92.8145 121.56L85.0745 110.38V121.2C85.0745 121.453 84.9811 121.667 84.7945 121.84C84.6211 122.013 84.4078 122.1 84.1545 122.1Z" fill="#FF9D60"/>
<path d="M15.6309 121.88L15.3185 122.27L15.3327 122.282L15.3476 122.292L15.6309 121.88ZM15.1709 121.2L14.6954 121.355L14.6981 121.363L14.701 121.371L15.1709 121.2ZM11.2509 109.16L10.7685 109.292L10.7717 109.303L10.7754 109.315L11.2509 109.16ZM11.1909 108.82H11.6909V108.807L11.6902 108.794L11.1909 108.82ZM11.4109 108.2L11.0573 107.846L11.0573 107.846L11.4109 108.2ZM12.6309 108.14L12.3108 108.524L12.6309 108.14ZM12.9709 108.66L13.4492 108.514L13.4481 108.511L12.9709 108.66ZM16.3309 119.7L15.8525 119.846L16.3286 121.41L16.8088 119.847L16.3309 119.7ZM19.7109 108.7L20.1888 108.847L20.1905 108.841L19.7109 108.7ZM20.0909 108.16L20.3815 108.567L20.3865 108.563L20.0909 108.16ZM21.3909 108.16L21.0819 108.553L21.0973 108.565L21.1135 108.576L21.3909 108.16ZM21.7909 108.7L21.3111 108.841L21.3129 108.847L21.7909 108.7ZM25.1709 119.7L24.6929 119.847L25.1731 121.41L25.6492 119.846L25.1709 119.7ZM28.5309 108.66L28.0536 108.511L28.0525 108.514L28.5309 108.66ZM28.8709 108.14L29.191 108.524V108.524L28.8709 108.14ZM30.0709 108.2L29.7035 108.539L29.717 108.554L29.7317 108.567L30.0709 108.2ZM30.3109 108.82L29.8116 108.794L29.8109 108.807V108.82H30.3109ZM30.2509 109.16L30.7263 109.315L30.7301 109.303L30.7332 109.292L30.2509 109.16ZM26.3309 121.2L26.8008 121.371L26.8037 121.363L26.8063 121.355L26.3309 121.2ZM25.8509 121.88L26.1466 122.283L26.1509 122.28L25.8509 121.88ZM24.4109 121.86L24.0956 122.248L24.1087 122.259L24.1225 122.268L24.4109 121.86ZM23.9709 121.2L24.4498 121.056L24.4477 121.049L23.9709 121.2ZM20.7509 111L21.2277 110.849L20.7509 109.339L20.2741 110.849L20.7509 111ZM17.5309 121.2L17.054 121.049L17.0519 121.056L17.5309 121.2ZM17.0709 121.86L17.3709 122.26L17.3746 122.257L17.0709 121.86ZM16.3509 121.6C16.1821 121.6 16.0415 121.556 15.9141 121.468L15.3476 122.292C15.6469 122.498 15.9863 122.6 16.3509 122.6V121.6ZM15.9432 121.49C15.8291 121.398 15.7229 121.255 15.6408 121.029L14.701 121.371C14.8321 121.732 15.0326 122.042 15.3185 122.27L15.9432 121.49ZM15.6463 121.045L11.7263 109.005L10.7754 109.315L14.6954 121.355L15.6463 121.045ZM11.7332 109.028C11.7161 108.965 11.7049 108.916 11.6983 108.878C11.695 108.859 11.693 108.845 11.692 108.835C11.6909 108.824 11.6909 108.82 11.6909 108.82H10.6909C10.6909 108.968 10.7253 109.133 10.7685 109.292L11.7332 109.028ZM11.6902 108.794C11.6833 108.663 11.7174 108.601 11.7644 108.554L11.0573 107.846C10.7843 108.119 10.6718 108.47 10.6916 108.846L11.6902 108.794ZM11.7644 108.554C11.8353 108.483 11.924 108.44 12.0709 108.44V107.44C11.6844 107.44 11.3331 107.571 11.0573 107.846L11.7644 108.554ZM12.0709 108.44C12.1703 108.44 12.243 108.468 12.3108 108.524L12.951 107.756C12.6987 107.546 12.3981 107.44 12.0709 107.44V108.44ZM12.3108 108.524C12.3914 108.591 12.4535 108.681 12.4936 108.809L13.4481 108.511C13.3549 108.213 13.1903 107.955 12.951 107.756L12.3108 108.524ZM12.4925 108.806L15.8525 119.846L16.8092 119.554L13.4492 108.514L12.4925 108.806ZM16.8088 119.847L20.1888 108.847L19.2329 108.553L15.8529 119.553L16.8088 119.847ZM20.1905 108.841C20.2267 108.718 20.2887 108.633 20.3815 108.567L19.8002 107.753C19.5197 107.954 19.3284 108.228 19.2312 108.559L20.1905 108.841ZM20.3865 108.563C20.5038 108.477 20.6209 108.44 20.7509 108.44V107.44C20.4008 107.44 20.0779 107.549 19.7952 107.757L20.3865 108.563ZM20.7509 108.44C20.8802 108.44 20.9844 108.477 21.0819 108.553L21.6998 107.767C21.424 107.55 21.1016 107.44 20.7509 107.44V108.44ZM21.1135 108.576C21.2178 108.646 21.2782 108.729 21.3112 108.841L22.2705 108.559C22.1702 108.218 21.964 107.941 21.6682 107.744L21.1135 108.576ZM21.3129 108.847L24.6929 119.847L25.6488 119.553L22.2688 108.553L21.3129 108.847ZM25.6492 119.846L29.0092 108.806L28.0525 108.514L24.6925 119.554L25.6492 119.846ZM29.0081 108.809C29.0483 108.681 29.1103 108.591 29.191 108.524L28.5508 107.756C28.3114 107.955 28.1468 108.213 28.0536 108.511L29.0081 108.809ZM29.191 108.524C29.2587 108.468 29.3314 108.44 29.4309 108.44V107.44C29.1037 107.44 28.803 107.546 28.5508 107.756L29.191 108.524ZM29.4309 108.44C29.5781 108.44 29.6509 108.482 29.7035 108.539L30.4383 107.861C30.1708 107.571 29.817 107.44 29.4309 107.44V108.44ZM29.7317 108.567C29.7867 108.618 29.8177 108.676 29.8116 108.794L30.8102 108.846C30.8306 108.457 30.7017 108.102 30.41 107.833L29.7317 108.567ZM29.8109 108.82C29.8109 108.82 29.8109 108.824 29.8098 108.835C29.8087 108.845 29.8068 108.859 29.8035 108.878C29.7968 108.916 29.7857 108.965 29.7685 109.028L30.7332 109.292C30.7764 109.133 30.8109 108.968 30.8109 108.82H29.8109ZM29.7754 109.005L25.8554 121.045L26.8063 121.355L30.7263 109.315L29.7754 109.005ZM25.861 121.029C25.7817 121.247 25.674 121.388 25.5509 121.48L26.1509 122.28C26.4544 122.052 26.6667 121.74 26.8008 121.371L25.861 121.029ZM25.5552 121.477C25.4475 121.556 25.3197 121.6 25.1509 121.6V122.6C25.5154 122.6 25.8542 122.498 26.1465 122.283L25.5552 121.477ZM25.1509 121.6C24.9918 121.6 24.8451 121.555 24.6992 121.452L24.1225 122.268C24.4299 122.485 24.7766 122.6 25.1509 122.6V121.6ZM24.7262 121.472C24.5917 121.363 24.5014 121.228 24.4498 121.056L23.4919 121.344C23.6004 121.705 23.8034 122.011 24.0956 122.248L24.7262 121.472ZM24.4477 121.049L21.2277 110.849L20.2741 111.151L23.4941 121.351L24.4477 121.049ZM20.2741 110.849L17.0541 121.049L18.0077 121.351L21.2277 111.151L20.2741 110.849ZM17.0519 121.056C17.003 121.219 16.9124 121.352 16.7671 121.463L17.3746 122.257C17.6826 122.022 17.8987 121.714 18.0098 121.344L17.0519 121.056ZM16.7709 121.46C16.6441 121.555 16.5093 121.6 16.3509 121.6V122.6C16.7257 122.6 17.071 122.485 17.3709 122.26L16.7709 121.46ZM35.2857 121.28L35.5373 120.848L35.2857 121.28ZM32.8457 118.74L32.4041 118.974L32.8457 118.74ZM31.9457 115.02L31.4458 115.01L31.4456 115.02L31.4458 115.03L31.9457 115.02ZM32.8457 111.3L33.2873 111.534L32.8457 111.3ZM35.2857 108.76L35.0341 108.328L35.2857 108.76ZM42.6257 108.76L42.3717 109.191L42.3741 109.192L42.6257 108.76ZM45.0657 111.32L44.6228 111.552L44.6263 111.559L45.0657 111.32ZM45.9857 115.02L46.4856 115.03L46.4858 115.02L46.4856 115.01L45.9857 115.02ZM45.0657 118.74L44.6251 118.504L44.6241 118.506L45.0657 118.74ZM42.6257 121.28L42.3741 120.848L42.3717 120.849L42.6257 121.28ZM41.7457 119.78L41.4853 119.353L41.7457 119.78ZM43.5457 117.82L43.9929 118.044L43.5457 117.82ZM43.5457 112.22L43.9929 111.996V111.996L43.5457 112.22ZM41.7457 110.26L41.4853 110.687L41.7457 110.26ZM36.1657 110.26L35.9053 109.833L35.902 109.835L36.1657 110.26ZM34.3857 112.22L33.9385 111.996L34.3857 112.22ZM34.3857 117.82L33.9385 118.044L34.3857 117.82ZM36.1657 119.78L35.902 120.205L35.9053 120.207L36.1657 119.78ZM38.9657 121.7C37.6408 121.7 36.5035 121.411 35.5373 120.848L35.0341 121.712C36.1746 122.376 37.4906 122.7 38.9657 122.7V121.7ZM35.5373 120.848C34.5648 120.282 33.8171 119.504 33.2873 118.506L32.4041 118.974C33.021 120.136 33.9 121.052 35.0341 121.712L35.5373 120.848ZM33.2873 118.506C32.7558 117.504 32.471 116.343 32.4456 115.01L31.4458 115.03C31.4737 116.497 31.7889 117.816 32.4041 118.974L33.2873 118.506ZM32.4456 115.03C32.471 113.697 32.7558 112.536 33.2873 111.534L32.4041 111.066C31.7889 112.224 31.4737 113.543 31.4458 115.01L32.4456 115.03ZM33.2873 111.534C33.8171 110.536 34.5648 109.758 35.5373 109.192L35.0341 108.328C33.9 108.988 33.021 109.904 32.4041 111.066L33.2873 111.534ZM35.5373 109.192C36.5035 108.629 37.6408 108.34 38.9657 108.34V107.34C37.4906 107.34 36.1746 107.664 35.0341 108.328L35.5373 109.192ZM38.9657 108.34C40.2908 108.34 41.4202 108.63 42.3717 109.191L42.8797 108.329C41.7512 107.664 40.4406 107.34 38.9657 107.34V108.34ZM42.3741 109.192C43.3451 109.757 44.0926 110.541 44.6229 111.552L45.5085 111.088C44.8921 109.912 44.013 108.989 42.8773 108.328L42.3741 109.192ZM44.6263 111.559C45.1701 112.56 45.4605 113.713 45.4858 115.03L46.4856 115.01C46.4576 113.554 46.1346 112.24 45.5051 111.081L44.6263 111.559ZM45.4858 115.01C45.4605 116.327 45.1701 117.488 44.6251 118.504L45.5063 118.976C46.1346 117.805 46.4576 116.486 46.4856 115.03L45.4858 115.01ZM44.6241 118.506C44.0943 119.504 43.3466 120.282 42.3741 120.848L42.8773 121.712C44.0114 121.052 44.8905 120.136 45.5073 118.974L44.6241 118.506ZM42.3717 120.849C41.4202 121.41 40.2908 121.7 38.9657 121.7V122.7C40.4406 122.7 41.7512 122.376 42.8797 121.711L42.3717 120.849ZM38.9657 121C40.1095 121 41.1294 120.742 42.0061 120.207L41.4853 119.353C40.7887 119.778 39.9552 120 38.9657 120V121ZM42.0061 120.207C42.8731 119.678 43.5378 118.954 43.9929 118.044L43.0985 117.596C42.727 118.339 42.1916 118.922 41.4853 119.353L42.0061 120.207ZM43.9929 118.044C44.4451 117.139 44.6657 116.128 44.6657 115.02H43.6657C43.6657 115.992 43.473 116.847 43.0985 117.596L43.9929 118.044ZM44.6657 115.02C44.6657 113.912 44.4451 112.901 43.9929 111.996L43.0985 112.444C43.473 113.193 43.6657 114.048 43.6657 115.02H44.6657ZM43.9929 111.996C43.5378 111.086 42.8731 110.362 42.0061 109.833L41.4853 110.687C42.1916 111.118 42.727 111.701 43.0985 112.444L43.9929 111.996ZM42.0061 109.833C41.1294 109.298 40.1095 109.04 38.9657 109.04V110.04C39.9552 110.04 40.7887 110.262 41.4853 110.687L42.0061 109.833ZM38.9657 109.04C37.8098 109.04 36.783 109.298 35.9053 109.833L36.4261 110.687C37.1217 110.262 37.9616 110.04 38.9657 110.04V109.04ZM35.902 109.835C35.0488 110.365 34.3925 111.088 33.9385 111.996L34.8329 112.444C35.2055 111.698 35.7359 111.115 36.4294 110.685L35.902 109.835ZM33.9385 111.996C33.4863 112.901 33.2657 113.912 33.2657 115.02H34.2657C34.2657 114.048 34.4584 113.193 34.8329 112.444L33.9385 111.996ZM33.2657 115.02C33.2657 116.128 33.4863 117.139 33.9385 118.044L34.8329 117.596C34.4584 116.847 34.2657 115.992 34.2657 115.02H33.2657ZM33.9385 118.044C34.3925 118.952 35.0488 119.675 35.902 120.205L36.4294 119.355C35.7359 118.925 35.2055 118.342 34.8329 117.596L33.9385 118.044ZM35.9053 120.207C36.783 120.742 37.8098 121 38.9657 121V120C37.9616 120 37.1217 119.778 36.4261 119.353L35.9053 120.207ZM49.2762 121.84L49.6297 121.486L49.2762 121.84ZM49.3962 108.34L49.7498 108.694L49.7587 108.684L49.3962 108.34ZM51.6962 108.18L51.3962 108.58L51.4019 108.584L51.4078 108.588L51.6962 108.18ZM52.1962 108.78L52.6602 108.594L52.6568 108.585L52.6531 108.577L52.1962 108.78ZM56.7362 120.1L56.2721 120.286L56.7362 121.443L57.2002 120.286L56.7362 120.1ZM61.2762 108.78L60.8193 108.577L60.8155 108.585L60.8121 108.594L61.2762 108.78ZM61.7562 108.18L61.4678 107.772L61.4619 107.776L61.4562 107.78L61.7562 108.18ZM64.0762 108.34L63.7136 108.684L63.7226 108.694L64.0762 108.34ZM64.1962 121.84L64.5497 122.194V122.194L64.1962 121.84ZM62.8962 121.84L62.5426 122.194L62.5492 122.2L62.5559 122.206L62.8962 121.84ZM62.6362 109.84H63.1362L62.1727 109.652L62.6362 109.84ZM58.0162 121.26L58.477 121.454L58.4797 121.448L58.0162 121.26ZM57.4962 121.88L57.7678 122.3L57.7735 122.296L57.4962 121.88ZM55.9562 121.88L55.6678 122.288L55.6813 122.298L55.6954 122.307L55.9562 121.88ZM55.4562 121.26L54.9926 121.448L54.9954 121.454L55.4562 121.26ZM50.8362 109.84L51.2997 109.652L50.3362 109.84H50.8362ZM50.5562 121.84L50.2159 121.474L50.2092 121.48L50.2026 121.486L50.5562 121.84ZM49.9162 121.6C49.7905 121.6 49.7058 121.563 49.6297 121.486L48.9226 122.194C49.1932 122.464 49.5352 122.6 49.9162 122.6V121.6ZM49.6297 121.486C49.5536 121.41 49.5162 121.326 49.5162 121.2H48.5162C48.5162 121.581 48.6521 121.923 48.9226 122.194L49.6297 121.486ZM49.5162 121.2V109.26H48.5162V121.2H49.5162ZM49.5162 109.26C49.5162 109.032 49.5907 108.853 49.7497 108.694L49.0426 107.986C48.695 108.334 48.5162 108.768 48.5162 109.26H49.5162ZM49.7587 108.684C49.9199 108.515 50.0966 108.44 50.3162 108.44V107.44C49.8158 107.44 49.3791 107.632 49.0337 107.996L49.7587 108.684ZM50.3162 108.44H50.9762V107.44H50.3162V108.44ZM50.9762 108.44C51.1347 108.44 51.2694 108.485 51.3962 108.58L51.9962 107.78C51.6963 107.555 51.351 107.44 50.9762 107.44V108.44ZM51.4078 108.588C51.5651 108.7 51.6713 108.83 51.7393 108.983L52.6531 108.577C52.5077 108.25 52.2805 107.98 51.9845 107.772L51.4078 108.588ZM51.7321 108.966L56.2721 120.286L57.2002 119.914L52.6602 108.594L51.7321 108.966ZM57.2002 120.286L61.7402 108.966L60.8121 108.594L56.2721 119.914L57.2002 120.286ZM61.7331 108.983C61.8045 108.822 61.91 108.69 62.0562 108.58L61.4562 107.78C61.1757 107.99 60.9611 108.258 60.8193 108.577L61.7331 108.983ZM62.0445 108.588C62.1905 108.485 62.3371 108.44 62.4962 108.44V107.44C62.1219 107.44 61.7752 107.555 61.4678 107.772L62.0445 108.588ZM62.4962 108.44H63.1562V107.44H62.4962V108.44ZM63.1562 108.44C63.3758 108.44 63.5524 108.515 63.7137 108.684L64.4387 107.996C64.0933 107.632 63.6566 107.44 63.1562 107.44V108.44ZM63.7226 108.694C63.8817 108.853 63.9562 109.032 63.9562 109.26H64.9562C64.9562 108.768 64.7773 108.334 64.4297 107.986L63.7226 108.694ZM63.9562 109.26V121.2H64.9562V109.26H63.9562ZM63.9562 121.2C63.9562 121.326 63.9187 121.41 63.8426 121.486L64.5497 122.194C64.8203 121.923 64.9562 121.581 64.9562 121.2H63.9562ZM63.8426 121.486C63.7665 121.563 63.6819 121.6 63.5562 121.6V122.6C63.9372 122.6 64.2792 122.464 64.5497 122.194L63.8426 121.486ZM63.5562 121.6C63.4298 121.6 63.3312 121.562 63.2364 121.474L62.5559 122.206C62.8345 122.465 63.1759 122.6 63.5562 122.6V121.6ZM63.2497 121.486C63.1736 121.41 63.1362 121.326 63.1362 121.2H62.1362C62.1362 121.581 62.2721 121.923 62.5426 122.194L63.2497 121.486ZM63.1362 121.2V109.84H62.1362V121.2H63.1362ZM62.1727 109.652L57.5527 121.072L58.4797 121.448L63.0997 110.028L62.1727 109.652ZM57.5554 121.066C57.4887 121.224 57.3815 121.356 57.2188 121.464L57.7735 122.296C58.0909 122.084 58.3303 121.802 58.477 121.454L57.5554 121.066ZM57.2245 121.46C57.0819 121.553 56.9236 121.6 56.7362 121.6V122.6C57.1088 122.6 57.4571 122.501 57.7678 122.3L57.2245 121.46ZM56.7362 121.6C56.5486 121.6 56.3788 121.552 56.2169 121.453L55.6954 122.307C56.0136 122.501 56.3637 122.6 56.7362 122.6V121.6ZM56.2445 121.472C56.0935 121.365 55.987 121.232 55.917 121.066L54.9954 121.454C55.1387 121.794 55.3655 122.075 55.6678 122.288L56.2445 121.472ZM55.9197 121.072L51.2997 109.652L50.3727 110.028L54.9927 121.448L55.9197 121.072ZM50.3362 109.84V121.2H51.3362V109.84H50.3362ZM50.3362 121.2C50.3362 121.313 50.3014 121.394 50.2159 121.474L50.8964 122.206C51.1843 121.939 51.3362 121.593 51.3362 121.2H50.3362ZM50.2026 121.486C50.1265 121.563 50.0419 121.6 49.9162 121.6V122.6C50.2972 122.6 50.6392 122.464 50.9097 122.194L50.2026 121.486ZM67.6326 121.84L67.2652 122.179L67.272 122.186L67.279 122.194L67.6326 121.84ZM67.4926 120.8L67.0322 120.605L67.031 120.608L67.4926 120.8ZM72.5926 108.76L72.1356 108.557L72.1322 108.565L72.5926 108.76ZM73.0326 108.18L73.3415 108.573L73.3449 108.57L73.0326 108.18ZM74.6526 108.18L74.3272 108.56L74.3416 108.572L74.3569 108.583L74.6526 108.18ZM75.1126 108.76L75.5731 108.565L75.5695 108.557L75.1126 108.76ZM80.2126 120.8L80.6741 120.608L80.673 120.605L80.2126 120.8ZM80.0526 121.84L79.699 121.486L79.692 121.494L79.6852 121.501L80.0526 121.84ZM78.8926 121.96L78.5985 122.364L78.6189 122.379L78.6406 122.392L78.8926 121.96ZM78.5526 121.54L78.091 121.732L78.0947 121.741L78.0986 121.75L78.5526 121.54ZM77.2526 118.42L77.7141 118.228L77.5859 117.92H77.2526V118.42ZM70.4526 118.42V117.92H70.1192L69.991 118.228L70.4526 118.42ZM69.1526 121.54L69.6066 121.75L69.6105 121.741L69.6141 121.732L69.1526 121.54ZM68.7926 121.96L69.0611 122.382L69.0699 122.376L68.7926 121.96ZM71.1526 116.76L70.6908 116.568L70.4035 117.26H71.1526V116.76ZM76.5526 116.76V117.26H77.3017L77.0143 116.568L76.5526 116.76ZM73.8526 110.26L74.3143 110.068L73.8526 108.957L73.3908 110.068L73.8526 110.26ZM68.2926 121.6C68.1457 121.6 68.057 121.557 67.9861 121.486L67.279 122.194C67.5548 122.469 67.9061 122.6 68.2926 122.6V121.6ZM68 121.501C67.9319 121.427 67.8926 121.338 67.8926 121.2H66.8926C66.8926 121.569 67.0133 121.906 67.2652 122.179L68 121.501ZM67.8926 121.2C67.8926 121.188 67.8989 121.125 67.9541 120.992L67.031 120.608C66.9529 120.795 66.8926 120.999 66.8926 121.2H67.8926ZM67.953 120.995L73.053 108.955L72.1322 108.565L67.0322 120.605L67.953 120.995ZM73.0495 108.963C73.1266 108.789 73.2255 108.664 73.3415 108.573L72.7237 107.787C72.4663 107.989 72.2719 108.251 72.1357 108.557L73.0495 108.963ZM73.3449 108.57C73.4478 108.488 73.5748 108.44 73.7526 108.44V107.44C73.3703 107.44 73.0173 107.552 72.7202 107.79L73.3449 108.57ZM73.7526 108.44H73.9526V107.44H73.7526V108.44ZM73.9526 108.44C74.1308 108.44 74.2437 108.488 74.3272 108.56L74.978 107.8C74.6881 107.552 74.3343 107.44 73.9526 107.44V108.44ZM74.3569 108.583C74.4825 108.675 74.5822 108.798 74.6557 108.963L75.5695 108.557C75.4296 108.242 75.2227 107.978 74.9483 107.777L74.3569 108.583ZM74.6522 108.955L79.7522 120.995L80.673 120.605L75.573 108.565L74.6522 108.955ZM79.751 120.992C79.8062 121.125 79.8126 121.188 79.8126 121.2H80.8126C80.8126 120.999 80.7523 120.795 80.6741 120.608L79.751 120.992ZM79.8126 121.2C79.8126 121.326 79.7751 121.41 79.699 121.486L80.4061 122.194C80.6767 121.923 80.8126 121.581 80.8126 121.2H79.8126ZM79.6852 121.501C79.6327 121.558 79.5598 121.6 79.4126 121.6V122.6C79.7987 122.6 80.1525 122.469 80.42 122.179L79.6852 121.501ZM79.4126 121.6C79.3137 121.6 79.2274 121.576 79.1445 121.528L78.6406 122.392C78.8777 122.53 79.1381 122.6 79.4126 122.6V121.6ZM79.1867 121.556C79.1127 121.502 79.0527 121.431 79.0066 121.33L78.0986 121.75C78.2124 121.996 78.3791 122.205 78.5985 122.364L79.1867 121.556ZM79.0141 121.348L77.7141 118.228L76.791 118.612L78.091 121.732L79.0141 121.348ZM77.2526 117.92H70.4526V118.92H77.2526V117.92ZM69.991 118.228L68.691 121.348L69.6141 121.732L70.9141 118.612L69.991 118.228ZM68.6986 121.33C68.6576 121.419 68.599 121.488 68.5152 121.544L69.0699 122.376C69.3061 122.219 69.4876 122.007 69.6066 121.75L68.6986 121.33ZM68.5241 121.538C68.4637 121.577 68.3915 121.6 68.2926 121.6V122.6C68.567 122.6 68.8282 122.53 69.061 122.382L68.5241 121.538ZM71.1526 117.26H76.5526V116.26H71.1526V117.26ZM77.0143 116.568L74.3143 110.068L73.3908 110.452L76.0908 116.952L77.0143 116.568ZM73.3908 110.068L70.6908 116.568L71.6143 116.952L74.3143 110.452L73.3908 110.068ZM83.5145 121.84L83.868 121.486L83.5145 121.84ZM83.6345 108.34L83.9881 108.694L83.997 108.684L83.6345 108.34ZM85.9145 108.54L86.3255 108.255L86.3186 108.245L86.3113 108.236L85.9145 108.54ZM93.6145 119.66L93.2034 119.945L94.1145 121.26V119.66H93.6145ZM93.8745 108.22L94.228 108.574L94.2346 108.567L94.2409 108.56L93.8745 108.22ZM95.1545 108.22L94.7881 108.56L94.8007 108.574L94.8142 108.586L95.1545 108.22ZM95.0345 121.72L94.69 121.357L94.6809 121.366L95.0345 121.72ZM93.2745 121.96L93.0264 122.394L93.0384 122.401L93.0508 122.407L93.2745 121.96ZM92.8145 121.56L92.4034 121.845L92.4088 121.852L92.4145 121.86L92.8145 121.56ZM85.0745 110.38L85.4855 110.095L84.5745 108.779V110.38H85.0745ZM84.7945 121.84L84.4542 121.474L84.4474 121.48L84.4409 121.486L84.7945 121.84ZM84.1544 121.6C84.0288 121.6 83.9441 121.563 83.868 121.486L83.1609 122.194C83.4314 122.464 83.7735 122.6 84.1544 122.6V121.6ZM83.868 121.486C83.7919 121.41 83.7545 121.326 83.7545 121.2H82.7545C82.7545 121.581 82.8904 121.923 83.1609 122.194L83.868 121.486ZM83.7545 121.2V109.26H82.7545V121.2H83.7545ZM83.7545 109.26C83.7545 109.032 83.8289 108.853 83.988 108.694L83.2809 107.986C82.9333 108.334 82.7545 108.768 82.7545 109.26H83.7545ZM83.997 108.684C84.1582 108.515 84.3348 108.44 84.5545 108.44V107.44C84.0541 107.44 83.6174 107.632 83.272 107.996L83.997 108.684ZM84.5545 108.44H84.8145V107.44H84.5545V108.44ZM84.8145 108.44C85.0564 108.44 85.2863 108.542 85.5176 108.844L86.3113 108.236C85.9293 107.738 85.4258 107.44 84.8145 107.44V108.44ZM85.5034 108.825L93.2034 119.945L94.0255 119.375L86.3255 108.255L85.5034 108.825ZM94.1145 119.66V108.86H93.1145V119.66H94.1145ZM94.1145 108.86C94.1145 108.734 94.1519 108.65 94.228 108.574L93.5209 107.866C93.2504 108.137 93.1145 108.479 93.1145 108.86H94.1145ZM94.2409 108.56C94.3202 108.475 94.401 108.44 94.5145 108.44V107.44C94.1212 107.44 93.7754 107.592 93.5081 107.88L94.2409 108.56ZM94.5145 108.44C94.6279 108.44 94.7087 108.475 94.7881 108.56L95.5209 107.88C95.2535 107.592 94.9077 107.44 94.5145 107.44V108.44ZM94.8142 108.586C94.8997 108.666 94.9345 108.747 94.9345 108.86H95.9345C95.9345 108.467 95.7826 108.121 95.4947 107.854L94.8142 108.586ZM94.9345 108.86V120.8H95.9345V108.86H94.9345ZM94.9345 120.8C94.9345 121.02 94.8598 121.196 94.6901 121.358L95.3788 122.083C95.7424 121.737 95.9345 121.3 95.9345 120.8H94.9345ZM94.6809 121.366C94.5218 121.526 94.3426 121.6 94.1145 121.6V122.6C94.6063 122.6 95.0404 122.421 95.388 122.074L94.6809 121.366ZM94.1145 121.6H93.8745V122.6H94.1145V121.6ZM93.8745 121.6C93.737 121.6 93.6137 121.571 93.4981 121.513L93.0508 122.407C93.3085 122.536 93.5853 122.6 93.8745 122.6V121.6ZM93.5225 121.526C93.3906 121.451 93.2905 121.361 93.2145 121.26L92.4145 121.86C92.5784 122.079 92.785 122.256 93.0264 122.394L93.5225 121.526ZM93.2255 121.275L85.4855 110.095L84.6634 110.665L92.4034 121.845L93.2255 121.275ZM84.5745 110.38V121.2H85.5745V110.38H84.5745ZM84.5745 121.2C84.5745 121.313 84.5396 121.394 84.4542 121.474L85.1347 122.206C85.4226 121.939 85.5745 121.593 85.5745 121.2H84.5745ZM84.4409 121.486C84.3648 121.563 84.2801 121.6 84.1544 121.6V122.6C84.5354 122.6 84.8775 122.464 85.148 122.194L84.4409 121.486Z" fill="#FF9D60"/>
<path d="M18.6344 142.1C18.3677 142.1 18.1477 142.013 17.9744 141.84C17.8144 141.667 17.7344 141.453 17.7344 141.2C17.7344 141.093 17.7677 140.96 17.8344 140.8L22.9344 128.76C23.041 128.52 23.1877 128.327 23.3744 128.18C23.5744 128.02 23.8144 127.94 24.0944 127.94H24.2944C24.5744 127.94 24.8077 128.02 24.9944 128.18C25.1944 128.327 25.3477 128.52 25.4544 128.76L30.5544 140.8C30.621 140.96 30.6544 141.093 30.6544 141.2C30.6544 141.453 30.5677 141.667 30.3944 141.84C30.2344 142.013 30.021 142.1 29.7544 142.1C29.5677 142.1 29.3944 142.053 29.2344 141.96C29.0877 141.853 28.9744 141.713 28.8944 141.54L27.5944 138.42H20.7944L19.4944 141.54C19.4144 141.713 19.2944 141.853 19.1344 141.96C18.9877 142.053 18.821 142.1 18.6344 142.1ZM21.4944 136.76H26.8944L24.1944 130.26L21.4944 136.76ZM34.8563 142C34.5096 142 34.2096 141.88 33.9563 141.64C33.7163 141.387 33.5963 141.087 33.5963 140.74V128.86C33.5963 128.607 33.6829 128.393 33.8563 128.22C34.0296 128.033 34.2429 127.94 34.4963 127.94C34.7496 127.94 34.9629 128.033 35.1363 128.22C35.3229 128.393 35.4163 128.607 35.4163 128.86V140.18H41.9563C42.2096 140.18 42.4229 140.273 42.5963 140.46C42.7829 140.633 42.8763 140.847 42.8763 141.1C42.8763 141.353 42.7829 141.567 42.5963 141.74C42.4229 141.913 42.2096 142 41.9563 142H34.8563ZM44.6891 142.1C44.4224 142.1 44.2024 142.013 44.0291 141.84C43.8691 141.667 43.7891 141.453 43.7891 141.2C43.7891 141.093 43.8224 140.96 43.8891 140.8L48.9891 128.76C49.0957 128.52 49.2424 128.327 49.4291 128.18C49.6291 128.02 49.8691 127.94 50.1491 127.94H50.3491C50.6291 127.94 50.8624 128.02 51.0491 128.18C51.2491 128.327 51.4024 128.52 51.5091 128.76L56.6091 140.8C56.6757 140.96 56.7091 141.093 56.7091 141.2C56.7091 141.453 56.6224 141.667 56.4491 141.84C56.2891 142.013 56.0757 142.1 55.8091 142.1C55.6224 142.1 55.4491 142.053 55.2891 141.96C55.1424 141.853 55.0291 141.713 54.9491 141.54L53.6491 138.42H46.8491L45.5491 141.54C45.4691 141.713 45.3491 141.853 45.1891 141.96C45.0424 142.053 44.8757 142.1 44.6891 142.1ZM47.5491 136.76H52.9491L50.2491 130.26L47.5491 136.76ZM60.5509 142.1C60.2976 142.1 60.0843 142.013 59.9109 141.84C59.7376 141.667 59.6509 141.453 59.6509 141.2V128.96C59.6509 128.707 59.7376 128.493 59.9109 128.32C60.0843 128.133 60.2976 128.04 60.5509 128.04H65.2109C67.0243 128.04 68.3843 128.413 69.2909 129.16C70.1976 129.907 70.6509 130.887 70.6509 132.1C70.6509 132.9 70.4243 133.633 69.9709 134.3C69.5309 134.953 68.8843 135.427 68.0309 135.72C68.9909 135.973 69.6443 136.573 69.9909 137.52C70.3509 138.453 70.5309 139.373 70.5309 140.28V141.2C70.5309 141.453 70.4443 141.667 70.2709 141.84C70.0976 142.013 69.8843 142.1 69.6309 142.1C69.3509 142.1 69.1243 142.02 68.9509 141.86C68.7909 141.687 68.7109 141.467 68.7109 141.2V140.6C68.7109 139.933 68.6509 139.32 68.5309 138.76C68.4109 138.187 68.1243 137.68 67.6709 137.24C67.2176 136.787 66.5309 136.56 65.6109 136.56H61.4709V141.2C61.4709 141.453 61.3776 141.667 61.1909 141.84C61.0176 142.013 60.8043 142.1 60.5509 142.1ZM65.0909 134.84C66.2376 134.84 67.1443 134.613 67.8109 134.16C68.4909 133.707 68.8309 133.067 68.8309 132.24C68.8309 131.44 68.5376 130.827 67.9509 130.4C67.3776 129.973 66.3909 129.76 64.9909 129.76H61.4709V134.84H65.0909ZM74.7892 142.1C74.5359 142.1 74.3226 142.013 74.1492 141.84C73.9759 141.667 73.8892 141.453 73.8892 141.2V129.26C73.8892 128.9 74.0159 128.593 74.2692 128.34C74.5226 128.073 74.8292 127.94 75.1892 127.94H75.8492C76.1159 127.94 76.3559 128.02 76.5692 128.18C76.7959 128.34 76.9626 128.54 77.0692 128.78L81.6092 140.1L86.1492 128.78C86.2559 128.54 86.4159 128.34 86.6292 128.18C86.8559 128.02 87.1026 127.94 87.3692 127.94H88.0292C88.3892 127.94 88.6959 128.073 88.9492 128.34C89.2026 128.593 89.3292 128.9 89.3292 129.26V141.2C89.3292 141.453 89.2426 141.667 89.0692 141.84C88.8959 142.013 88.6826 142.1 88.4292 142.1C88.1759 142.1 87.9559 142.013 87.7692 141.84C87.5959 141.667 87.5092 141.453 87.5092 141.2V129.84L82.8892 141.26C82.7826 141.513 82.6092 141.72 82.3692 141.88C82.1426 142.027 81.8892 142.1 81.6092 142.1C81.3292 142.1 81.0692 142.027 80.8292 141.88C80.6026 141.72 80.4359 141.513 80.3292 141.26L75.7092 129.84V141.2C75.7092 141.453 75.6159 141.667 75.4292 141.84C75.2559 142.013 75.0426 142.1 74.7892 142.1Z" fill="#EC5E90"/>
<path d="M17.9744 141.84L17.607 142.179L17.6138 142.186L17.6208 142.194L17.9744 141.84ZM17.8344 140.8L17.374 140.605L17.3728 140.608L17.8344 140.8ZM22.9344 128.76L22.4774 128.557L22.474 128.565L22.9344 128.76ZM23.3744 128.18L23.6833 128.573L23.6867 128.57L23.3744 128.18ZM24.9944 128.18L24.669 128.56L24.6834 128.572L24.6987 128.583L24.9944 128.18ZM25.4544 128.76L25.9148 128.565L25.9113 128.557L25.4544 128.76ZM30.5544 140.8L31.0159 140.608L31.0148 140.605L30.5544 140.8ZM30.3944 141.84L30.0408 141.486L30.0338 141.494L30.027 141.501L30.3944 141.84ZM29.2344 141.96L28.9403 142.364L28.9607 142.379L28.9824 142.392L29.2344 141.96ZM28.8944 141.54L28.4328 141.732L28.4365 141.741L28.4404 141.75L28.8944 141.54ZM27.5944 138.42L28.0559 138.228L27.9277 137.92H27.5944V138.42ZM20.7944 138.42V137.92H20.461L20.3328 138.228L20.7944 138.42ZM19.4944 141.54L19.9484 141.75L19.9523 141.741L19.9559 141.732L19.4944 141.54ZM19.1344 141.96L19.4029 142.382L19.4117 142.376L19.1344 141.96ZM21.4944 136.76L21.0326 136.568L20.7453 137.26H21.4944V136.76ZM26.8944 136.76V137.26H27.6435L27.3561 136.568L26.8944 136.76ZM24.1944 130.26L24.6561 130.068L24.1944 128.957L23.7326 130.068L24.1944 130.26ZM18.6344 141.6C18.4875 141.6 18.3988 141.557 18.3279 141.486L17.6208 142.194C17.8966 142.469 18.2479 142.6 18.6344 142.6V141.6ZM18.3418 141.501C18.2737 141.427 18.2344 141.338 18.2344 141.2H17.2344C17.2344 141.569 17.3551 141.906 17.607 142.179L18.3418 141.501ZM18.2344 141.2C18.2344 141.188 18.2407 141.125 18.2959 140.992L17.3728 140.608C17.2947 140.795 17.2344 140.999 17.2344 141.2H18.2344ZM18.2948 140.995L23.3948 128.955L22.474 128.565L17.374 140.605L18.2948 140.995ZM23.3913 128.963C23.4684 128.789 23.5673 128.664 23.6833 128.573L23.0655 127.787C22.8081 127.989 22.6137 128.251 22.4775 128.557L23.3913 128.963ZM23.6867 128.57C23.7896 128.488 23.9166 128.44 24.0944 128.44V127.44C23.7121 127.44 23.3591 127.552 23.062 127.79L23.6867 128.57ZM24.0944 128.44H24.2944V127.44H24.0944V128.44ZM24.2944 128.44C24.4726 128.44 24.5855 128.488 24.669 128.56L25.3198 127.8C25.0299 127.552 24.6761 127.44 24.2944 127.44V128.44ZM24.6987 128.583C24.8243 128.675 24.924 128.798 24.9975 128.963L25.9113 128.557C25.7714 128.242 25.5645 127.978 25.2901 127.777L24.6987 128.583ZM24.994 128.955L30.094 140.995L31.0148 140.605L25.9148 128.565L24.994 128.955ZM30.0928 140.992C30.148 141.125 30.1544 141.188 30.1544 141.2H31.1544C31.1544 140.999 31.0941 140.795 31.0159 140.608L30.0928 140.992ZM30.1544 141.2C30.1544 141.326 30.1169 141.41 30.0408 141.486L30.7479 142.194C31.0185 141.923 31.1544 141.581 31.1544 141.2H30.1544ZM30.027 141.501C29.9745 141.558 29.9016 141.6 29.7544 141.6V142.6C30.1405 142.6 30.4943 142.469 30.7618 142.179L30.027 141.501ZM29.7544 141.6C29.6555 141.6 29.5692 141.576 29.4863 141.528L28.9824 142.392C29.2195 142.53 29.4799 142.6 29.7544 142.6V141.6ZM29.5285 141.556C29.4545 141.502 29.3945 141.431 29.3484 141.33L28.4404 141.75C28.5542 141.996 28.7209 142.205 28.9403 142.364L29.5285 141.556ZM29.3559 141.348L28.0559 138.228L27.1328 138.612L28.4328 141.732L29.3559 141.348ZM27.5944 137.92H20.7944V138.92H27.5944V137.92ZM20.3328 138.228L19.0328 141.348L19.9559 141.732L21.2559 138.612L20.3328 138.228ZM19.0404 141.33C18.9994 141.419 18.9408 141.488 18.857 141.544L19.4117 142.376C19.6479 142.219 19.8294 142.007 19.9484 141.75L19.0404 141.33ZM18.8659 141.538C18.8055 141.577 18.7333 141.6 18.6344 141.6V142.6C18.9088 142.6 19.17 142.53 19.4028 142.382L18.8659 141.538ZM21.4944 137.26H26.8944V136.26H21.4944V137.26ZM27.3561 136.568L24.6561 130.068L23.7326 130.452L26.4326 136.952L27.3561 136.568ZM23.7326 130.068L21.0326 136.568L21.9561 136.952L24.6561 130.452L23.7326 130.068ZM33.9562 141.64L33.5933 141.984L33.6026 141.994L33.6124 142.003L33.9562 141.64ZM33.8563 128.22L34.2098 128.574L34.2163 128.567L34.2226 128.56L33.8563 128.22ZM35.1362 128.22L34.7699 128.56L34.7825 128.574L34.796 128.586L35.1362 128.22ZM35.4162 140.18H34.9162V140.68H35.4162V140.18ZM42.5963 140.46L42.2299 140.8L42.2425 140.814L42.256 140.826L42.5963 140.46ZM42.5963 141.74L42.256 141.374L42.2492 141.38L42.2427 141.386L42.5963 141.74ZM34.8563 141.5C34.6385 141.5 34.4613 141.43 34.3001 141.277L33.6124 142.003C33.9579 142.33 34.3807 142.5 34.8563 142.5V141.5ZM34.3192 141.296C34.1666 141.135 34.0962 140.958 34.0962 140.74H33.0962C33.0962 141.216 33.2659 141.638 33.5933 141.984L34.3192 141.296ZM34.0962 140.74V128.86H33.0962V140.74H34.0962ZM34.0962 128.86C34.0962 128.734 34.1337 128.65 34.2098 128.574L33.5027 127.866C33.2321 128.137 33.0962 128.479 33.0962 128.86H34.0962ZM34.2226 128.56C34.302 128.475 34.3828 128.44 34.4963 128.44V127.44C34.103 127.44 33.7572 127.592 33.4899 127.88L34.2226 128.56ZM34.4963 128.44C34.6097 128.44 34.6905 128.475 34.7699 128.56L35.5026 127.88C35.2353 127.592 34.8895 127.44 34.4963 127.44V128.44ZM34.796 128.586C34.8814 128.666 34.9162 128.747 34.9162 128.86H35.9162C35.9162 128.467 35.7644 128.121 35.4765 127.854L34.796 128.586ZM34.9162 128.86V140.18H35.9162V128.86H34.9162ZM35.4162 140.68H41.9562V139.68H35.4162V140.68ZM41.9562 140.68C42.0697 140.68 42.1505 140.715 42.2299 140.8L42.9626 140.12C42.6953 139.832 42.3495 139.68 41.9562 139.68V140.68ZM42.256 140.826C42.3414 140.906 42.3763 140.987 42.3763 141.1H43.3763C43.3763 140.707 43.2244 140.361 42.9365 140.094L42.256 140.826ZM42.3763 141.1C42.3763 141.213 42.3414 141.294 42.256 141.374L42.9365 142.106C43.2244 141.839 43.3763 141.493 43.3763 141.1H42.3763ZM42.2427 141.386C42.1666 141.463 42.0819 141.5 41.9562 141.5V142.5C42.3372 142.5 42.6793 142.364 42.9498 142.094L42.2427 141.386ZM41.9562 141.5H34.8563V142.5H41.9562V141.5ZM44.0291 141.84L43.6617 142.179L43.6684 142.186L43.6755 142.194L44.0291 141.84ZM43.8891 140.8L43.4287 140.605L43.4275 140.608L43.8891 140.8ZM48.9891 128.76L48.5321 128.557L48.5287 128.565L48.9891 128.76ZM49.4291 128.18L49.738 128.573L49.7414 128.57L49.4291 128.18ZM51.0491 128.18L50.7237 128.56L50.7381 128.572L50.7534 128.583L51.0491 128.18ZM51.5091 128.76L51.9695 128.565L51.966 128.557L51.5091 128.76ZM56.6091 140.8L57.0706 140.608L57.0695 140.605L56.6091 140.8ZM56.4491 141.84L56.0955 141.486L56.0884 141.494L56.0817 141.501L56.4491 141.84ZM55.2891 141.96L54.995 142.364L55.0154 142.379L55.0371 142.392L55.2891 141.96ZM54.9491 141.54L54.4875 141.732L54.4911 141.741L54.4951 141.75L54.9491 141.54ZM53.6491 138.42L54.1106 138.228L53.9824 137.92H53.6491V138.42ZM46.8491 138.42V137.92H46.5157L46.3875 138.228L46.8491 138.42ZM45.5491 141.54L46.003 141.75L46.007 141.741L46.0106 141.732L45.5491 141.54ZM45.1891 141.96L45.4576 142.382L45.4664 142.376L45.1891 141.96ZM47.5491 136.76L47.0873 136.568L46.7999 137.26H47.5491V136.76ZM52.9491 136.76V137.26H53.6982L53.4108 136.568L52.9491 136.76ZM50.2491 130.26L50.7108 130.068L50.2491 128.957L49.7873 130.068L50.2491 130.26ZM44.6891 141.6C44.5422 141.6 44.4535 141.557 44.3826 141.486L43.6755 142.194C43.9513 142.469 44.3026 142.6 44.6891 142.6V141.6ZM44.3965 141.501C44.3284 141.427 44.2891 141.338 44.2891 141.2H43.2891C43.2891 141.569 43.4098 141.906 43.6617 142.179L44.3965 141.501ZM44.2891 141.2C44.2891 141.188 44.2954 141.125 44.3506 140.992L43.4275 140.608C43.3494 140.795 43.2891 140.999 43.2891 141.2H44.2891ZM44.3495 140.995L49.4495 128.955L48.5287 128.565L43.4287 140.605L44.3495 140.995ZM49.446 128.963C49.5231 128.789 49.622 128.664 49.738 128.573L49.1202 127.787C48.8628 127.989 48.6683 128.251 48.5322 128.557L49.446 128.963ZM49.7414 128.57C49.8443 128.488 49.9713 128.44 50.1491 128.44V127.44C49.7668 127.44 49.4138 127.552 49.1167 127.79L49.7414 128.57ZM50.1491 128.44H50.3491V127.44H50.1491V128.44ZM50.3491 128.44C50.5273 128.44 50.6402 128.488 50.7237 128.56L51.3745 127.8C51.0846 127.552 50.7308 127.44 50.3491 127.44V128.44ZM50.7534 128.583C50.8789 128.675 50.9787 128.798 51.0522 128.963L51.966 128.557C51.8261 128.242 51.6192 127.978 51.3447 127.777L50.7534 128.583ZM51.0487 128.955L56.1487 140.995L57.0695 140.605L51.9695 128.565L51.0487 128.955ZM56.1475 140.992C56.2027 141.125 56.2091 141.188 56.2091 141.2H57.2091C57.2091 140.999 57.1487 140.795 57.0706 140.608L56.1475 140.992ZM56.2091 141.2C56.2091 141.326 56.1716 141.41 56.0955 141.486L56.8026 142.194C57.0732 141.923 57.2091 141.581 57.2091 141.2H56.2091ZM56.0817 141.501C56.0291 141.558 55.9563 141.6 55.8091 141.6V142.6C56.1952 142.6 56.549 142.469 56.8165 142.179L56.0817 141.501ZM55.8091 141.6C55.7102 141.6 55.6239 141.576 55.541 141.528L55.0371 142.392C55.2742 142.53 55.5346 142.6 55.8091 142.6V141.6ZM55.5831 141.556C55.5092 141.502 55.4492 141.431 55.403 141.33L54.4951 141.75C54.6089 141.996 54.7756 142.205 54.995 142.364L55.5831 141.556ZM55.4106 141.348L54.1106 138.228L53.1875 138.612L54.4875 141.732L55.4106 141.348ZM53.6491 137.92H46.8491V138.92H53.6491V137.92ZM46.3875 138.228L45.0875 141.348L46.0106 141.732L47.3106 138.612L46.3875 138.228ZM45.0951 141.33C45.0541 141.419 44.9955 141.488 44.9117 141.544L45.4664 142.376C45.7026 142.219 45.8841 142.007 46.003 141.75L45.0951 141.33ZM44.9206 141.538C44.8601 141.577 44.788 141.6 44.6891 141.6V142.6C44.9635 142.6 45.2247 142.53 45.4575 142.382L44.9206 141.538ZM47.5491 137.26H52.9491V136.26H47.5491V137.26ZM53.4108 136.568L50.7108 130.068L49.7873 130.452L52.4873 136.952L53.4108 136.568ZM49.7873 130.068L47.0873 136.568L48.0108 136.952L50.7108 130.452L49.7873 130.068ZM59.9109 141.84L60.2645 141.486L59.9109 141.84ZM59.9109 128.32L60.2645 128.674L60.271 128.667L60.2773 128.66L59.9109 128.32ZM69.2909 129.16L69.6088 128.774L69.2909 129.16ZM69.9709 134.3L69.5575 134.019L69.5562 134.021L69.9709 134.3ZM68.0309 135.72L67.8684 135.247L66.3098 135.783L67.9034 136.203L68.0309 135.72ZM69.9909 137.52L69.5214 137.692L69.5244 137.7L69.9909 137.52ZM70.2709 141.84L70.6245 142.194L70.2709 141.84ZM68.9509 141.86L68.5835 142.199L68.5971 142.214L68.6118 142.227L68.9509 141.86ZM68.5309 138.76L68.0415 138.862L68.042 138.865L68.5309 138.76ZM67.6709 137.24L67.3173 137.594L67.3227 137.599L67.6709 137.24ZM61.4709 136.56V136.06H60.9709V136.56H61.4709ZM61.1909 141.84L60.8507 141.474L60.8439 141.48L60.8374 141.486L61.1909 141.84ZM67.8109 134.16L67.5336 133.744L67.5298 133.747L67.8109 134.16ZM67.9509 130.4L67.6524 130.801L67.6569 130.804L67.9509 130.4ZM61.4709 129.76V129.26H60.9709V129.76H61.4709ZM61.4709 134.84H60.9709V135.34H61.4709V134.84ZM60.5509 141.6C60.4253 141.6 60.3406 141.563 60.2645 141.486L59.5574 142.194C59.8279 142.464 60.17 142.6 60.5509 142.6V141.6ZM60.2645 141.486C60.1884 141.41 60.1509 141.326 60.1509 141.2H59.1509C59.1509 141.581 59.2868 141.923 59.5574 142.194L60.2645 141.486ZM60.1509 141.2V128.96H59.1509V141.2H60.1509ZM60.1509 128.96C60.1509 128.834 60.1884 128.75 60.2645 128.674L59.5574 127.966C59.2868 128.237 59.1509 128.579 59.1509 128.96H60.1509ZM60.2773 128.66C60.3567 128.575 60.4375 128.54 60.5509 128.54V127.54C60.1577 127.54 59.8119 127.692 59.5445 127.98L60.2773 128.66ZM60.5509 128.54H65.2109V127.54H60.5509V128.54ZM65.2109 128.54C66.9682 128.54 68.1933 128.904 68.9731 129.546L69.6088 128.774C68.5753 127.923 67.0803 127.54 65.2109 127.54V128.54ZM68.9731 129.546C69.7601 130.194 70.1509 131.03 70.1509 132.1H71.1509C71.1509 130.743 70.6351 129.619 69.6088 128.774L68.9731 129.546ZM70.1509 132.1C70.1509 132.799 69.9549 133.434 69.5575 134.019L70.3844 134.581C70.8937 133.832 71.1509 133.001 71.1509 132.1H70.1509ZM69.5562 134.021C69.1856 134.571 68.6345 134.984 67.8684 135.247L68.1935 136.193C69.1341 135.87 69.8763 135.336 70.3857 134.579L69.5562 134.021ZM67.9034 136.203C68.7024 136.414 69.2299 136.896 69.5214 137.692L70.4604 137.348C70.0586 136.251 69.2794 135.532 68.1585 135.237L67.9034 136.203ZM69.5244 137.7C69.8646 138.582 70.0309 139.441 70.0309 140.28H71.0309C71.0309 139.306 70.8373 138.325 70.4574 137.34L69.5244 137.7ZM70.0309 140.28V141.2H71.0309V140.28H70.0309ZM70.0309 141.2C70.0309 141.326 69.9935 141.41 69.9174 141.486L70.6245 142.194C70.895 141.923 71.0309 141.581 71.0309 141.2H70.0309ZM69.9174 141.486C69.8413 141.563 69.7566 141.6 69.6309 141.6V142.6C70.0119 142.6 70.3539 142.464 70.6245 142.194L69.9174 141.486ZM69.6309 141.6C69.4517 141.6 69.3542 141.552 69.2901 141.493L68.6118 142.227C68.8943 142.488 69.2502 142.6 69.6309 142.6V141.6ZM69.3183 141.521C69.2549 141.452 69.2109 141.359 69.2109 141.2H68.2109C68.2109 141.575 68.327 141.921 68.5835 142.199L69.3183 141.521ZM69.2109 141.2V140.6H68.2109V141.2H69.2109ZM69.2109 140.6C69.2109 139.904 69.1483 139.255 69.0198 138.655L68.042 138.865C68.1536 139.385 68.2109 139.963 68.2109 140.6H69.2109ZM69.0203 138.658C68.8783 137.979 68.5382 137.385 68.0192 136.881L67.3227 137.599C67.7104 137.975 67.9436 138.394 68.0415 138.862L69.0203 138.658ZM68.0245 136.886C67.4431 136.305 66.6055 136.06 65.6109 136.06V137.06C66.4563 137.06 66.9921 137.268 67.3174 137.594L68.0245 136.886ZM65.6109 136.06H61.4709V137.06H65.6109V136.06ZM60.9709 136.56V141.2H61.9709V136.56H60.9709ZM60.9709 141.2C60.9709 141.313 60.9361 141.394 60.8507 141.474L61.5312 142.206C61.8191 141.939 61.9709 141.593 61.9709 141.2H60.9709ZM60.8374 141.486C60.7613 141.563 60.6766 141.6 60.5509 141.6V142.6C60.9319 142.6 61.2739 142.464 61.5445 142.194L60.8374 141.486ZM65.0909 135.34C66.2972 135.34 67.3143 135.102 68.0921 134.573L67.5298 133.747C66.9743 134.124 66.178 134.34 65.0909 134.34V135.34ZM68.0883 134.576C68.9093 134.029 69.3309 133.232 69.3309 132.24H68.3309C68.3309 132.902 68.0726 133.385 67.5336 133.744L68.0883 134.576ZM69.3309 132.24C69.3309 131.299 68.9758 130.527 68.245 129.996L67.6569 130.804C68.0995 131.126 68.3309 131.581 68.3309 132.24H69.3309ZM68.2494 129.999C67.5394 129.47 66.4114 129.26 64.9909 129.26V130.26C66.3705 130.26 67.2158 130.476 67.6524 130.801L68.2494 129.999ZM64.9909 129.26H61.4709V130.26H64.9909V129.26ZM60.9709 129.76V134.84H61.9709V129.76H60.9709ZM61.4709 135.34H65.0909V134.34H61.4709V135.34ZM74.1492 141.84L74.5028 141.486L74.1492 141.84ZM74.2692 128.34L74.6229 128.694L74.6317 128.684L74.2692 128.34ZM76.5692 128.18L76.2692 128.58L76.275 128.584L76.2809 128.588L76.5692 128.18ZM77.0692 128.78L77.5333 128.594L77.5299 128.585L77.5261 128.577L77.0692 128.78ZM81.6092 140.1L81.1451 140.286L81.6092 141.443L82.0733 140.286L81.6092 140.1ZM86.1492 128.78L85.6923 128.577L85.6886 128.585L85.6852 128.594L86.1492 128.78ZM86.6292 128.18L86.3409 127.772L86.335 127.776L86.3292 127.78L86.6292 128.18ZM88.9492 128.34L88.5866 128.684L88.5957 128.694L88.9492 128.34ZM89.0692 141.84L89.4228 142.194V142.194L89.0692 141.84ZM87.7692 141.84L87.4157 142.194L87.4222 142.2L87.429 142.206L87.7692 141.84ZM87.5092 129.84H88.0092L87.0457 129.652L87.5092 129.84ZM82.8892 141.26L83.3501 141.454L83.3527 141.448L82.8892 141.26ZM82.3692 141.88L82.6409 142.3L82.6466 142.296L82.3692 141.88ZM80.8292 141.88L80.5409 142.288L80.5544 142.298L80.5685 142.307L80.8292 141.88ZM80.3292 141.26L79.8657 141.448L79.8684 141.454L80.3292 141.26ZM75.7092 129.84L76.1727 129.652L75.2092 129.84H75.7092ZM75.4292 141.84L75.089 141.474L75.0822 141.48L75.0757 141.486L75.4292 141.84ZM74.7892 141.6C74.6635 141.6 74.5789 141.563 74.5028 141.486L73.7957 142.194C74.0662 142.464 74.4082 142.6 74.7892 142.6V141.6ZM74.5028 141.486C74.4267 141.41 74.3892 141.326 74.3892 141.2H73.3892C73.3892 141.581 73.5251 141.923 73.7957 142.194L74.5028 141.486ZM74.3892 141.2V129.26H73.3892V141.2H74.3892ZM74.3892 129.26C74.3892 129.032 74.4637 128.853 74.6228 128.694L73.9157 127.986C73.5681 128.334 73.3892 128.768 73.3892 129.26H74.3892ZM74.6317 128.684C74.793 128.515 74.9696 128.44 75.1892 128.44V127.44C74.6888 127.44 74.2521 127.632 73.9067 127.996L74.6317 128.684ZM75.1892 128.44H75.8492V127.44H75.1892V128.44ZM75.8492 128.44C76.0077 128.44 76.1424 128.485 76.2692 128.58L76.8692 127.78C76.5693 127.555 76.2241 127.44 75.8492 127.44V128.44ZM76.2809 128.588C76.4382 128.7 76.5444 128.83 76.6123 128.983L77.5261 128.577C77.3807 128.25 77.1536 127.98 76.8576 127.772L76.2809 128.588ZM76.6051 128.966L81.1451 140.286L82.0733 139.914L77.5333 128.594L76.6051 128.966ZM82.0733 140.286L86.6133 128.966L85.6852 128.594L81.1451 139.914L82.0733 140.286ZM86.6061 128.983C86.6776 128.822 86.783 128.69 86.9292 128.58L86.3292 127.78C86.0487 127.99 85.8342 128.258 85.6923 128.577L86.6061 128.983ZM86.9176 128.588C87.0635 128.485 87.2102 128.44 87.3692 128.44V127.44C86.9949 127.44 86.6483 127.555 86.3409 127.772L86.9176 128.588ZM87.3692 128.44H88.0292V127.44H87.3692V128.44ZM88.0292 128.44C88.2488 128.44 88.4255 128.515 88.5867 128.684L89.3117 127.996C88.9663 127.632 88.5296 127.44 88.0292 127.44V128.44ZM88.5957 128.694C88.7547 128.853 88.8292 129.032 88.8292 129.26H89.8292C89.8292 128.768 89.6504 128.334 89.3028 127.986L88.5957 128.694ZM88.8292 129.26V141.2H89.8292V129.26H88.8292ZM88.8292 141.2C88.8292 141.326 88.7918 141.41 88.7157 141.486L89.4228 142.194C89.6933 141.923 89.8292 141.581 89.8292 141.2H88.8292ZM88.7157 141.486C88.6395 141.563 88.5549 141.6 88.4292 141.6V142.6C88.8102 142.6 89.1522 142.464 89.4228 142.194L88.7157 141.486ZM88.4292 141.6C88.3029 141.6 88.2042 141.562 88.1094 141.474L87.429 142.206C87.7076 142.465 88.0489 142.6 88.4292 142.6V141.6ZM88.1228 141.486C88.0467 141.41 88.0092 141.326 88.0092 141.2H87.0092C87.0092 141.581 87.1451 141.923 87.4157 142.194L88.1228 141.486ZM88.0092 141.2V129.84H87.0092V141.2H88.0092ZM87.0457 129.652L82.4257 141.072L83.3527 141.448L87.9727 130.028L87.0457 129.652ZM82.4284 141.066C82.3617 141.224 82.2545 141.356 82.0919 141.464L82.6466 142.296C82.9639 142.084 83.2034 141.802 83.35 141.454L82.4284 141.066ZM82.0976 141.46C81.955 141.553 81.7966 141.6 81.6092 141.6V142.6C81.9818 142.6 82.3301 142.501 82.6408 142.3L82.0976 141.46ZM81.6092 141.6C81.4217 141.6 81.2518 141.552 81.0899 141.453L80.5685 142.307C80.8866 142.501 81.2368 142.6 81.6092 142.6V141.6ZM81.1176 141.472C80.9666 141.365 80.86 141.232 80.79 141.066L79.8684 141.454C80.0117 141.794 80.2385 142.075 80.5409 142.288L81.1176 141.472ZM80.7927 141.072L76.1727 129.652L75.2457 130.028L79.8657 141.448L80.7927 141.072ZM75.2092 129.84V141.2H76.2092V129.84H75.2092ZM75.2092 141.2C75.2092 141.313 75.1744 141.394 75.089 141.474L75.7694 142.206C76.0574 141.939 76.2092 141.593 76.2092 141.2H75.2092ZM75.0757 141.486C74.9995 141.563 74.9149 141.6 74.7892 141.6V142.6C75.1702 142.6 75.5122 142.464 75.7828 142.194L75.0757 141.486Z" fill="#EC5E90"/>
</svg>
