<svg width="390" height="556" viewBox="0 0 390 556" fill="none" xmlns="http://www.w3.org/2000/svg">
<mask id="mask0_133_5428" style="mask-type:alpha" maskUnits="userSpaceOnUse" x="0" y="0" width="390" height="556">
<rect width="390" height="555.551" fill="white"/>
</mask>
<g mask="url(#mask0_133_5428)">
<mask id="mask1_133_5428" style="mask-type:alpha" maskUnits="userSpaceOnUse" x="0" y="0" width="390" height="567">
<rect width="390" height="567" fill="#D9D9D9"/>
</mask>
<g mask="url(#mask1_133_5428)">
<path opacity="0.07" d="M25.3357 579.63C-10.7318 615.66 -67 419.128 -67 368.163C-67 317.198 -25.6562 275.877 25.3357 275.877C27.4274 275.877 29.5002 275.952 31.5542 276.084C23.9224 257.721 19.6825 237.587 19.6825 216.455C19.6825 130.61 89.3111 61 175.221 61C230.773 61 279.504 90.1173 307.035 133.887C325.973 102.265 360.571 81.0958 400.106 81.0958C456.393 81.0958 502.655 123.981 507.988 178.844C509.439 178.769 510.908 178.712 512.378 178.712C555.154 178.712 589.846 213.385 589.846 256.139C589.846 265.047 588.32 273.598 585.549 281.564C613.439 299.042 632 330.043 632 365.375C632 419.956 587.717 583.397 533.107 583.397C533.107 583.397 27.2201 577.747 25.3357 579.63Z" fill="#EC5E90"/>
</g>
<g opacity="0.85" clip-path="url(#clip0_133_5428)">
<path d="M73.2371 477.255C38.6101 455.625 64.7736 394 64.7736 394C99.482 426.935 73.2167 477.255 73.2167 477.255H73.2371Z" fill="#FEC89A"/>
<path d="M73.2371 477.255C73.2371 477.255 76.1464 417.793 64.7939 394C99.5023 426.935 73.2371 477.255 73.2371 477.255Z" fill="#FF9D60"/>
<path d="M82.7585 497.273H82.7382C82.7382 497.273 56.8188 446.769 99.2786 417.691C99.2786 417.691 124.466 467.726 82.7585 497.273Z" fill="#FEC89A"/>
<path d="M82.7588 497.273C83.2878 496.131 102.046 456.911 99.2788 417.691C99.2788 417.691 124.466 467.726 82.7588 497.273Z" fill="#FF9D60"/>
<path d="M-18.7214 474.031C-6.51445 455.85 16.3125 445.443 38.0001 448.198C59.6878 450.953 79.2189 466.726 86.5227 487.377C91.0799 481.643 100.703 479.867 107.864 481.337C115.026 482.806 121.15 488.52 123.103 495.6C131.871 482.01 151.464 476.317 167.007 480.725C182.53 485.132 194.696 498.58 199.457 514.047C204.218 529.515 202.061 546.635 195.469 561.409H-21C-17.0124 534.208 -15.4662 501.334 -18.7214 474.052V474.031Z" fill="#FFB4C9"/>
<path d="M-3.31984 493.641C6.91363 478.398 26.0378 469.685 44.2261 471.991C62.4145 474.297 78.7717 487.52 84.8955 504.844C88.7204 500.028 96.7769 498.559 102.779 499.783C108.78 501.008 113.928 505.803 115.555 511.741C122.9 500.334 139.338 495.58 152.359 499.273C165.38 502.967 175.573 514.251 179.56 527.209C183.548 540.166 181.737 554.512 176.224 566.898H-5.21191C-1.85501 544.105 -0.573283 516.537 -3.2995 493.662L-3.31984 493.641Z" fill="#EC5E90"/>
<path d="M58.7319 558.368C51.3264 551.614 48.3153 540.411 51.306 530.821C54.2967 521.23 63.1671 513.782 73.075 512.476C83.0033 511.17 93.4809 516.088 98.8316 524.556C99.8896 519.475 103.836 517.434 108.882 518.516C113.928 519.597 117.529 525.209 116.43 530.27C121.353 527.107 126.908 525.148 132.523 526.76C138.524 528.474 143.611 533.004 146.235 538.677C148.86 544.35 149.043 551.063 146.988 556.96L58.7319 558.368Z" fill="#FFB4C9"/>
<path d="M351.82 462.216C321.628 448.361 336.378 395.877 336.378 395.877C367.811 418.854 351.82 462.216 351.82 462.216Z" fill="#FEC89A"/>
<path d="M351.82 462.216C351.82 462.216 348.015 413.896 336.378 395.877C367.811 418.854 351.82 462.216 351.82 462.216Z" fill="#FF9D60"/>
<path d="M268.873 529.004C235.813 525.984 232.334 471.583 232.334 471.583C269.585 482.785 268.873 529.004 268.873 529.004Z" fill="#FEC89A"/>
<path d="M268.873 529.004C268.873 529.004 249.281 484.683 232.334 471.583C269.585 482.785 268.873 529.004 268.873 529.004Z" fill="#FF9D60"/>
<path d="M265.516 525.066C260.165 499.436 265.76 471.705 280.632 450.197" stroke="#FF9D60" stroke-linecap="round" stroke-linejoin="round"/>
<path d="M272.84 461.992C268.324 459.298 265.17 454.421 264.56 449.177C264.336 447.259 264.458 445.218 265.414 443.545C266.676 441.341 269.402 440.117 271.884 440.607C274.366 441.096 276.401 443.28 276.746 445.79C277.296 443.178 279.656 440.199 282.301 439.913C284.945 439.627 287.692 441.199 288.791 443.627C289.889 446.055 289.259 449.177 287.305 450.973C289.381 450.218 292.27 452.034 293.022 454.115C293.795 456.197 293.022 458.645 291.497 460.257C289.95 461.849 287.753 462.706 285.556 462.992C283.359 463.278 281.121 463.073 278.923 462.89C277.092 462.727 274.448 462.931 272.861 461.972L272.84 461.992Z" fill="#FF9D60"/>
<path d="M266.778 480.52C266.778 480.52 251.845 474.235 253.147 460.115C253.147 460.115 267.409 466.44 266.778 480.52Z" fill="#FF9D60"/>
<path d="M266.778 480.52C266.778 480.52 278.904 467.318 291.009 474.297C291.009 474.297 283.522 484.214 266.778 480.52Z" fill="#FF9D60"/>
<path d="M106.155 482.275C122.248 461.666 129.45 434.301 125.585 408.406" stroke="#FF9D60" stroke-linecap="round" stroke-linejoin="round"/>
<path d="M127.375 422.425C132.603 421.997 137.588 419.038 140.456 414.61C141.514 412.998 142.308 411.12 142.165 409.182C142.002 406.652 140.11 404.325 137.669 403.672C135.228 403.019 132.42 404.06 131.016 406.182C131.667 403.591 130.874 399.877 128.636 398.448C126.398 397.02 123.224 397.204 121.169 398.897C119.114 400.591 118.301 403.652 119.277 406.141C117.731 404.529 114.354 404.897 112.747 406.427C111.139 407.958 110.732 410.488 111.424 412.61C112.116 414.732 113.703 416.446 115.534 417.691C117.385 418.936 119.46 419.732 121.536 420.527C123.265 421.18 125.523 422.548 127.375 422.405V422.425Z" fill="#FF9D60"/>
<path d="M124.648 441.749C124.648 441.749 140.823 442.729 145.868 429.506C145.868 429.506 130.304 428.853 124.648 441.749Z" fill="#FF9D60"/>
<path d="M124.649 441.749C124.649 441.749 119.603 424.527 105.646 425.425C105.646 425.425 107.986 437.627 124.649 441.749Z" fill="#FF9D60"/>
<path d="M226.658 562.082C219.436 554.961 216.485 543.799 219.252 534.024C221.999 524.25 230.361 516.292 240.228 514.027C250.095 511.762 261.061 515.292 267.775 522.883C266.839 511.762 272.129 501.13 281.426 495.008C290.724 488.887 303.378 488.336 313.185 493.621C307 485.744 307.102 473.623 311.435 464.584C315.768 455.544 325.473 449.361 335.483 449.279C345.492 449.198 355.299 455.217 359.774 464.196C358.127 451.014 363.192 437.525 374.87 431.261C386.548 424.996 401.99 426.71 412.02 435.383V561.082L226.678 562.082H226.658Z" fill="#FFB4C9"/>
<path d="M246.169 567C239.719 560.633 237.074 550.635 239.536 541.901C241.998 533.167 249.485 526.046 258.294 524.025C267.124 522.005 276.93 525.148 282.952 531.943C282.118 522.005 286.858 512.496 295.179 507.007C303.5 501.538 314.833 501.028 323.601 505.762C318.067 498.702 318.169 487.866 322.035 479.786C325.9 471.705 334.587 466.175 343.539 466.094C352.491 466.012 361.26 471.399 365.267 479.439C363.782 467.644 368.34 455.585 378.776 449.973C389.213 444.361 403.048 445.892 412.02 453.666V566.123L246.189 567H246.169Z" fill="#EC5E90"/>
<path d="M354.342 481.051C354.342 484.785 351.331 491.376 347.608 491.376C343.885 491.376 340.874 484.785 340.874 481.051C340.874 477.317 343.885 474.297 347.608 474.297C351.331 474.297 354.342 477.317 354.342 481.051Z" fill="#FEC89A"/>
<path d="M336.866 483.969C340.406 485.132 345.716 490.03 344.557 493.58C343.397 497.131 336.236 497.967 332.696 496.825C329.156 495.662 327.223 491.866 328.362 488.315C329.522 484.765 333.306 482.826 336.846 483.969H336.866Z" fill="#FEC89A"/>
<path d="M334.242 501.538C336.439 498.518 342.726 494.968 345.737 497.171C348.748 499.375 347.324 506.476 345.147 509.497C342.95 512.517 338.738 513.19 335.727 510.986C332.716 508.782 332.045 504.558 334.242 501.538Z" fill="#FEC89A"/>
<path d="M350.07 509.476C347.872 506.456 346.469 499.355 349.48 497.151C352.491 494.947 358.798 498.498 360.975 501.518C363.172 504.538 362.5 508.762 359.489 510.966C356.478 513.17 352.267 512.496 350.07 509.476Z" fill="#FEC89A"/>
<path d="M362.501 496.825C358.961 497.988 351.779 497.131 350.64 493.58C349.48 490.029 354.79 485.112 358.33 483.969C361.87 482.806 365.675 484.765 366.814 488.315C367.974 491.866 366.021 495.682 362.481 496.825H362.501Z" fill="#FEC89A"/>
<path d="M354.342 494.56C354.342 498.294 351.331 501.314 347.608 501.314C343.885 501.314 340.874 498.294 340.874 494.56C340.874 490.825 343.885 487.805 347.608 487.805C351.331 487.805 354.342 490.825 354.342 494.56Z" fill="white"/>
<path d="M305.189 507.048C305.189 510.782 302.178 517.373 298.455 517.373C294.732 517.373 291.721 510.782 291.721 507.048C291.721 503.314 294.732 500.294 298.455 500.294C302.178 500.294 305.189 503.314 305.189 507.048Z" fill="#FEC89A"/>
<path d="M287.713 509.945C291.253 511.109 296.563 516.006 295.403 519.557C294.244 523.107 287.082 523.944 283.542 522.801C280.002 521.638 278.069 517.842 279.209 514.292C280.368 510.741 284.153 508.803 287.693 509.945H287.713Z" fill="#FEC89A"/>
<path d="M285.068 527.515C287.265 524.495 293.552 520.944 296.563 523.148C299.574 525.352 298.15 532.453 295.973 535.473C293.776 538.493 289.564 539.167 286.553 536.963C283.542 534.759 282.871 530.535 285.068 527.515Z" fill="#FEC89A"/>
<path d="M300.916 535.473C298.719 532.453 297.315 525.352 300.326 523.148C303.337 520.944 309.644 524.495 311.821 527.515C314.018 530.535 313.347 534.759 310.336 536.963C307.325 539.167 303.114 538.493 300.916 535.473Z" fill="#FEC89A"/>
<path d="M313.348 522.801C309.808 523.964 302.626 523.107 301.487 519.557C300.327 516.006 305.637 511.088 309.177 509.945C312.717 508.782 316.522 510.741 317.661 514.292C318.82 517.843 316.867 521.658 313.327 522.801H313.348Z" fill="#FEC89A"/>
<path d="M305.189 520.556C305.189 524.291 302.178 527.311 298.455 527.311C294.732 527.311 291.721 524.291 291.721 520.556C291.721 516.822 294.732 513.802 298.455 513.802C302.178 513.802 305.189 516.822 305.189 520.556Z" fill="white"/>
<path d="M161.554 482.336C161.554 486.071 158.543 492.662 154.82 492.662C151.097 492.662 148.086 486.071 148.086 482.336C148.086 478.602 151.097 475.582 154.82 475.582C158.543 475.582 161.554 478.602 161.554 482.336Z" fill="#FEC89A"/>
<path d="M144.078 485.255C147.618 486.418 152.928 491.315 151.769 494.866C150.609 498.416 143.447 499.253 139.907 498.11C136.367 496.947 134.435 493.152 135.574 489.601C136.713 486.05 140.518 484.112 144.058 485.255H144.078Z" fill="#FEC89A"/>
<path d="M141.433 502.824C143.631 499.804 149.917 496.253 152.928 498.457C155.939 500.661 154.515 507.762 152.338 510.782C150.141 513.802 145.93 514.476 142.918 512.272C139.907 510.068 139.236 505.844 141.433 502.824Z" fill="#FEC89A"/>
<path d="M157.282 510.762C155.084 507.742 153.681 500.64 156.692 498.437C159.703 496.233 166.01 499.783 168.186 502.803C170.384 505.823 169.712 510.047 166.701 512.251C163.69 514.455 159.479 513.782 157.282 510.762Z" fill="#FEC89A"/>
<path d="M169.713 498.11C166.173 499.273 158.991 498.416 157.852 494.866C156.713 491.315 162.002 486.397 165.542 485.254C169.082 484.091 172.887 486.05 174.026 489.601C175.186 493.151 173.233 496.967 169.693 498.11H169.713Z" fill="#FEC89A"/>
<path d="M161.554 495.866C161.554 499.6 158.543 502.62 154.82 502.62C151.097 502.62 148.086 499.6 148.086 495.866C148.086 492.131 151.097 489.111 154.82 489.111C158.543 489.111 161.554 492.131 161.554 495.866Z" fill="white"/>
<path d="M47.5015 489.091C47.5015 492.825 44.4905 499.416 40.7674 499.416C37.0442 499.416 34.0332 492.825 34.0332 489.091C34.0332 485.357 37.0442 482.337 40.7674 482.337C44.4905 482.337 47.5015 485.357 47.5015 489.091Z" fill="#FEC89A"/>
<path d="M30.0254 492.009C33.5654 493.172 38.8754 498.069 37.7158 501.62C36.5561 505.171 29.3947 506.007 25.8547 504.865C22.3147 503.722 20.3819 499.906 21.5213 496.355C22.6606 492.805 26.4651 490.866 30.0051 492.009H30.0254Z" fill="#FEC89A"/>
<path d="M27.3806 509.578C29.5778 506.558 35.8644 503.008 38.8754 505.211C41.8865 507.415 40.4623 514.516 38.2854 517.536C36.0882 520.557 31.8768 521.23 28.8657 519.026C25.8547 516.822 25.1833 512.598 27.3806 509.578Z" fill="#FEC89A"/>
<path d="M43.2289 517.516C41.0316 514.496 39.6278 507.395 42.6389 505.191C45.6499 502.987 51.9568 506.538 54.1337 509.558C56.331 512.578 55.6596 516.802 52.6486 519.006C49.6375 521.21 45.4261 520.536 43.2289 517.516Z" fill="#FEC89A"/>
<path d="M55.6602 504.865C52.1202 506.028 44.9384 505.171 43.7991 501.62C42.6395 498.069 47.9495 493.152 51.4895 492.009C55.0295 490.866 58.834 492.805 59.9733 496.355C61.1126 499.906 59.1798 503.722 55.6398 504.865H55.6602Z" fill="#FEC89A"/>
<path d="M47.5015 502.62C47.5015 506.354 44.4905 509.374 40.7674 509.374C37.0442 509.374 34.0332 506.354 34.0332 502.62C34.0332 498.886 37.0442 495.866 40.7674 495.866C44.4905 495.866 47.5015 498.886 47.5015 502.62Z" fill="white"/>
</g>
</g>
<defs>
<clipPath id="clip0_133_5428">
<rect width="433" height="173" fill="white" transform="translate(-21 394)"/>
</clipPath>
</defs>
</svg>
