<svg width="438" height="695" viewBox="0 0 438 695" fill="none" xmlns="http://www.w3.org/2000/svg">
<mask id="mask0_134_7053" style="mask-type:alpha" maskUnits="userSpaceOnUse" x="0" y="0" width="438" height="695">
<rect x="0.0292969" y="0.50415" width="437.353" height="694.254" fill="white"/>
</mask>
<g mask="url(#mask0_134_7053)">
<path opacity="0.07" d="M30.8435 690.377C-5.22395 726.407 -61.4922 529.874 -61.4922 478.91C-61.4922 427.945 -20.1484 386.623 30.8435 386.623C32.9352 386.623 35.008 386.699 37.062 386.83C29.4302 368.467 25.1903 348.334 25.1903 327.202C25.1903 241.357 94.8189 171.747 180.729 171.747C236.281 171.747 285.012 200.864 312.543 244.634C331.481 213.012 366.079 191.843 405.613 191.843C461.9 191.843 508.163 234.727 513.495 289.591C514.946 289.515 516.416 289.459 517.886 289.459C560.662 289.459 595.354 324.132 595.354 366.885C595.354 375.794 593.827 384.344 591.057 392.311C618.946 409.789 637.508 440.79 637.508 476.122C637.508 530.703 593.224 694.144 538.614 694.144C538.614 694.144 32.7279 688.494 30.8435 690.377Z" fill="#EC5E90"/>
</g>
</svg>
