<svg width="209" height="148" viewBox="0 0 209 148" fill="none" xmlns="http://www.w3.org/2000/svg">
<mask id="mask0_134_8689" style="mask-type:alpha" maskUnits="userSpaceOnUse" x="0" y="-48" width="209" height="196">
<rect x="0.788086" y="-47.5665" width="207.238" height="195.567" fill="#D9D9D9"/>
</mask>
<g mask="url(#mask0_134_8689)">
<path d="M79.2371 82.2555C44.6101 60.6254 70.7736 -1 70.7736 -1C105.482 31.9349 79.2167 82.2555 79.2167 82.2555H79.2371Z" fill="#FEC89A"/>
<path d="M79.2371 82.2555C79.2371 82.2555 82.1464 22.7931 70.7939 -1C105.502 31.9349 79.2371 82.2555 79.2371 82.2555Z" fill="#FF9D60"/>
<path d="M88.7585 102.273H88.7382C88.7382 102.273 62.8188 51.7692 105.279 22.691C105.279 22.691 130.466 72.726 88.7585 102.273Z" fill="#FEC89A"/>
<path d="M88.7588 102.273C89.2878 101.131 108.046 61.9109 105.279 22.691C105.279 22.691 130.466 72.726 88.7588 102.273Z" fill="#FF9D60"/>
<path d="M-12.7214 79.0314C-0.514449 60.8499 22.3125 50.443 44.0001 53.1977C65.6878 55.9525 85.2189 71.7262 92.5227 92.3768C97.0799 86.6428 106.703 84.8675 113.864 86.3367C121.026 87.8059 127.15 93.5195 129.103 100.6C137.871 87.0101 157.464 81.3169 173.007 85.7245C188.53 90.1322 200.696 103.58 205.457 119.047C210.218 134.515 208.061 151.635 201.469 166.409H-15C-11.0124 139.208 -9.46619 106.334 -12.7214 79.0518V79.0314Z" fill="#FFB4C9"/>
<path d="M-1.31984 96.5283C8.91363 82.0557 28.0378 73.7829 46.2261 75.9722C64.4145 78.1615 80.7717 90.716 86.8955 107.165C90.7204 102.593 98.7769 101.198 104.779 102.36C110.78 103.522 115.928 108.075 117.555 113.713C124.9 102.883 141.338 98.3689 154.359 101.876C167.38 105.382 177.573 116.096 181.56 128.399C185.548 140.702 183.737 154.322 178.224 166.082H-3.21191C0.14499 144.441 1.42672 118.266 -1.2995 96.5477L-1.31984 96.5283Z" fill="#EC5E90"/>
<path d="M64.7319 163.368C57.3264 156.614 54.3153 145.411 57.306 135.821C60.2967 126.23 69.1671 118.782 79.075 117.476C89.0033 116.17 99.4809 121.088 104.832 129.556C105.89 124.475 109.836 122.434 114.882 123.516C119.928 124.597 123.529 130.209 122.43 135.27C127.353 132.107 132.908 130.148 138.523 131.76C144.524 133.474 149.611 138.004 152.235 143.677C154.86 149.35 155.043 156.063 152.988 161.96L64.7319 163.368Z" fill="#FFB4C9"/>
<path d="M112.155 87.2753C128.248 66.6655 135.45 39.3014 131.585 13.4065" stroke="#FF9D60" stroke-linecap="round" stroke-linejoin="round"/>
<path d="M133.375 27.4252C138.603 26.9967 143.588 24.0378 146.456 19.6098C147.514 17.9977 148.308 16.1204 148.165 14.1819C148.002 11.6515 146.11 9.32529 143.669 8.67231C141.228 8.01932 138.42 9.06001 137.016 11.1822C137.667 8.59068 136.874 4.87683 134.636 3.44843C132.398 2.02003 129.224 2.20368 127.169 3.89736C125.114 5.59104 124.301 8.6519 125.277 11.1414C123.731 9.52935 120.354 9.89665 118.747 11.4271C117.139 12.9575 116.732 15.4878 117.424 17.61C118.116 19.7322 119.703 21.4463 121.534 22.6911C123.385 23.9358 125.46 24.7316 127.536 25.5275C129.265 26.1804 131.523 27.5476 133.375 27.4048V27.4252Z" fill="#FF9D60"/>
<path d="M130.648 46.7495C130.648 46.7495 146.823 47.7289 151.868 34.506C151.868 34.506 136.304 33.853 130.648 46.7495Z" fill="#FF9D60"/>
<path d="M130.649 46.7494C130.649 46.7494 125.603 29.5269 111.646 30.4248C111.646 30.4248 113.986 42.6274 130.649 46.7494Z" fill="#FF9D60"/>
<path d="M167.554 87.3365C167.554 91.0707 164.543 97.6618 160.82 97.6618C157.097 97.6618 154.086 91.0707 154.086 87.3365C154.086 83.6022 157.097 80.5822 160.82 80.5822C164.543 80.5822 167.554 83.6022 167.554 87.3365Z" fill="#FEC89A"/>
<path d="M150.078 90.2545C153.618 91.4177 158.928 96.315 157.769 99.8656C156.609 103.416 149.447 104.253 145.907 103.11C142.367 101.947 140.435 98.1516 141.574 94.601C142.713 91.0503 146.518 89.1118 150.058 90.2545H150.078Z" fill="#FEC89A"/>
<path d="M147.433 107.824C149.631 104.804 155.917 101.253 158.928 103.457C161.939 105.661 160.515 112.762 158.338 115.782C156.141 118.802 151.93 119.476 148.918 117.272C145.907 115.068 145.236 110.844 147.433 107.824Z" fill="#FEC89A"/>
<path d="M163.282 115.762C161.084 112.742 159.681 105.64 162.692 103.437C165.703 101.233 172.01 104.783 174.186 107.803C176.384 110.823 175.712 115.047 172.701 117.251C169.69 119.455 165.479 118.782 163.282 115.762Z" fill="#FEC89A"/>
<path d="M175.713 103.11C172.173 104.273 164.991 103.416 163.852 99.8656C162.713 96.315 168.002 91.3972 171.542 90.2545C175.082 89.0913 178.887 91.0503 180.026 94.6009C181.186 98.1515 179.233 101.967 175.693 103.11H175.713Z" fill="#FEC89A"/>
<path d="M167.554 100.866C167.554 104.6 164.543 107.62 160.82 107.62C157.097 107.62 154.086 104.6 154.086 100.866C154.086 97.1313 157.097 94.1112 160.82 94.1112C164.543 94.1112 167.554 97.1313 167.554 100.866Z" fill="white"/>
<path d="M53.5015 94.0908C53.5015 97.8251 50.4905 104.416 46.7674 104.416C43.0442 104.416 40.0332 97.8251 40.0332 94.0908C40.0332 90.3566 43.0442 87.3365 46.7674 87.3365C50.4905 87.3365 53.5015 90.3566 53.5015 94.0908Z" fill="#FEC89A"/>
<path d="M36.0254 97.0089C39.5654 98.1721 44.8754 103.069 43.7158 106.62C42.5561 110.171 35.3947 111.007 31.8547 109.865C28.3147 108.722 26.3819 104.906 27.5213 101.355C28.6606 97.8048 32.4651 95.8662 36.0051 97.0089H36.0254Z" fill="#FEC89A"/>
<path d="M33.3806 114.578C35.5778 111.558 41.8644 108.008 44.8754 110.211C47.8865 112.415 46.4623 119.516 44.2854 122.536C42.0882 125.557 37.8768 126.23 34.8657 124.026C31.8547 121.822 31.1833 117.598 33.3806 114.578Z" fill="#FEC89A"/>
<path d="M49.2289 122.516C47.0316 119.496 45.6278 112.395 48.6389 110.191C51.6499 107.987 57.9568 111.538 60.1337 114.558C62.331 117.578 61.6596 121.802 58.6486 124.006C55.6375 126.21 51.4261 125.536 49.2289 122.516Z" fill="#FEC89A"/>
<path d="M61.6602 109.865C58.1202 111.028 50.9384 110.171 49.7991 106.62C48.6395 103.069 53.9495 98.1516 57.4895 97.0089C61.0295 95.8662 64.834 97.8048 65.9733 101.355C67.1126 104.906 65.1798 108.722 61.6398 109.865H61.6602Z" fill="#FEC89A"/>
<path d="M53.5015 107.62C53.5015 111.354 50.4905 114.374 46.7674 114.374C43.0442 114.374 40.0332 111.354 40.0332 107.62C40.0332 103.886 43.0442 100.866 46.7674 100.866C50.4905 100.866 53.5015 103.886 53.5015 107.62Z" fill="white"/>
</g>
</svg>
