<svg width="197" height="182" viewBox="0 0 197 182" fill="none" xmlns="http://www.w3.org/2000/svg">
<mask id="mask0_134_8694" style="mask-type:alpha" maskUnits="userSpaceOnUse" x="0" y="0" width="197" height="182">
<rect x="0.796875" y="0.827026" width="196.203" height="180.354" fill="#D9D9D9"/>
</mask>
<g mask="url(#mask0_134_8694)">
<path d="M136.82 85.2164C106.628 71.3609 121.378 18.8773 121.378 18.8773C152.811 41.8542 136.82 85.2164 136.82 85.2164Z" fill="#FEC89A"/>
<path d="M136.82 85.2164C136.82 85.2164 133.015 36.8956 121.378 18.8773C152.811 41.8542 136.82 85.2164 136.82 85.2164Z" fill="#FF9D60"/>
<path d="M53.8734 152.004C20.813 148.984 17.334 94.5826 17.334 94.5826C54.5855 105.785 53.8734 152.004 53.8734 152.004Z" fill="#FEC89A"/>
<path d="M53.8734 152.004C53.8734 152.004 34.2813 107.683 17.334 94.5826C54.5855 105.785 53.8734 152.004 53.8734 152.004Z" fill="#FF9D60"/>
<path d="M50.5161 148.066C45.1654 122.436 50.7603 94.7051 65.6324 73.1974" stroke="#FF9D60" stroke-linecap="round" stroke-linejoin="round"/>
<path d="M57.8402 84.992C53.3237 82.2984 50.1702 77.4214 49.5599 72.1772C49.3361 70.259 49.4582 68.2184 50.4144 66.5452C51.6758 64.3414 54.402 63.117 56.8841 63.6067C59.3661 64.0965 61.4006 66.2799 61.7465 68.7898C62.2958 66.1779 64.6558 63.1986 67.3006 62.9129C69.9455 62.6273 72.692 64.1985 73.7906 66.6268C74.8893 69.0551 74.2586 72.1772 72.3055 73.9729C74.3806 73.2179 77.2696 75.034 78.0224 77.1154C78.7955 79.1967 78.0224 81.6454 76.4965 83.2575C74.9503 84.8491 72.753 85.7062 70.5558 85.9919C68.3585 86.2775 66.1206 86.0735 63.9234 85.8898C62.0923 85.7266 59.4475 85.9306 57.8606 84.9716L57.8402 84.992Z" fill="#FF9D60"/>
<path d="M51.7779 103.52C51.7779 103.52 36.8448 97.2354 38.1469 83.1146C38.1469 83.1146 52.4086 89.4404 51.7779 103.52Z" fill="#FF9D60"/>
<path d="M51.7783 103.52C51.7783 103.52 63.9039 90.3178 76.0091 97.2966C76.0091 97.2966 68.5222 107.214 51.7783 103.52Z" fill="#FF9D60"/>
<path d="M11.6579 185.082C4.43551 177.961 1.48548 166.799 4.25239 157.024C6.99895 147.25 15.3607 139.292 25.228 137.027C35.0952 134.762 46.0611 138.292 52.7749 145.883C51.8391 134.762 57.1287 124.13 66.4263 118.008C75.7239 111.887 88.3785 111.336 98.1847 116.621C91.9998 108.744 92.1016 96.6233 96.435 87.5835C100.768 78.5438 110.473 72.3608 120.483 72.2792C130.492 72.1976 140.299 78.2173 144.774 87.1958C143.127 74.0137 148.192 60.5255 159.87 54.2609C171.548 47.9963 186.99 49.7104 197.02 58.3829V184.082L11.6783 185.082H11.6579Z" fill="#FFB4C9"/>
<path d="M31.1686 185.082C24.7193 178.976 22.0744 169.385 24.5361 161.008C26.9979 152.632 34.4848 145.801 43.2941 143.863C52.1238 141.926 61.93 144.94 67.9521 151.457C67.118 141.926 71.8583 132.805 80.1794 127.54C88.5004 122.295 99.8325 121.805 108.601 126.346C103.067 119.574 103.169 109.181 107.035 101.431C110.9 93.68 119.587 88.376 128.539 88.2977C137.491 88.2194 146.26 93.3864 150.267 101.098C148.782 89.7851 153.34 78.218 163.776 72.8356C174.213 67.4533 188.048 68.9212 197.02 76.3782V184.241L31.1889 185.082H31.1686Z" fill="#EC5E90"/>
<path d="M139.342 104.051C139.342 107.785 136.331 114.376 132.608 114.376C128.885 114.376 125.874 107.785 125.874 104.051C125.874 100.317 128.885 97.2966 132.608 97.2966C136.331 97.2966 139.342 100.317 139.342 104.051Z" fill="#FEC89A"/>
<path d="M121.866 106.969C125.406 108.132 130.716 113.03 129.557 116.58C128.397 120.131 121.236 120.967 117.696 119.825C114.156 118.662 112.223 114.866 113.362 111.315C114.522 107.765 118.306 105.826 121.846 106.969H121.866Z" fill="#FEC89A"/>
<path d="M119.242 124.538C121.439 121.518 127.726 117.968 130.737 120.171C133.748 122.375 132.324 129.476 130.147 132.497C127.95 135.517 123.738 136.19 120.727 133.986C117.716 131.782 117.045 127.558 119.242 124.538Z" fill="#FEC89A"/>
<path d="M135.07 132.476C132.872 129.456 131.469 122.355 134.48 120.151C137.491 117.947 143.798 121.498 145.975 124.518C148.172 127.538 147.5 131.762 144.489 133.966C141.478 136.17 137.267 135.496 135.07 132.476Z" fill="#FEC89A"/>
<path d="M147.501 119.825C143.961 120.988 136.779 120.131 135.64 116.58C134.48 113.029 139.79 108.112 143.33 106.969C146.87 105.806 150.675 107.765 151.814 111.315C152.974 114.866 151.021 118.682 147.481 119.825H147.501Z" fill="#FEC89A"/>
<path d="M139.342 117.56C139.342 121.294 136.331 124.314 132.608 124.314C128.885 124.314 125.874 121.294 125.874 117.56C125.874 113.825 128.885 110.805 132.608 110.805C136.331 110.805 139.342 113.825 139.342 117.56Z" fill="white"/>
<path d="M90.189 130.048C90.189 133.782 87.178 140.373 83.4549 140.373C79.7317 140.373 76.7207 133.782 76.7207 130.048C76.7207 126.314 79.7317 123.294 83.4549 123.294C87.178 123.294 90.189 126.314 90.189 130.048Z" fill="#FEC89A"/>
<path d="M72.7129 132.945C76.2529 134.109 81.5629 139.006 80.4033 142.557C79.2436 146.107 72.0822 146.944 68.5422 145.801C65.0022 144.638 63.0694 140.842 64.2088 137.292C65.3684 133.741 69.1526 131.803 72.6926 132.945H72.7129Z" fill="#FEC89A"/>
<path d="M70.0681 150.515C72.2653 147.495 78.5519 143.944 81.5629 146.148C84.574 148.352 83.1498 155.453 80.9729 158.473C78.7757 161.493 74.5643 162.167 71.5532 159.963C68.5422 157.759 67.8708 153.535 70.0681 150.515Z" fill="#FEC89A"/>
<path d="M85.9164 158.473C83.7191 155.453 82.3153 148.352 85.3264 146.148C88.3374 143.944 94.6443 147.495 96.8212 150.515C99.0185 153.535 98.3471 157.759 95.3361 159.963C92.325 162.167 88.1136 161.493 85.9164 158.473Z" fill="#FEC89A"/>
<path d="M98.3477 145.801C94.8077 146.964 87.6259 146.107 86.4866 142.557C85.327 139.006 90.637 134.088 94.177 132.945C97.717 131.782 101.522 133.741 102.661 137.292C103.82 140.843 101.867 144.658 98.3274 145.801H98.3477Z" fill="#FEC89A"/>
<path d="M90.189 143.556C90.189 147.291 87.178 150.311 83.4549 150.311C79.7317 150.311 76.7207 147.291 76.7207 143.556C76.7207 139.822 79.7317 136.802 83.4549 136.802C87.178 136.802 90.189 139.822 90.189 143.556Z" fill="white"/>
</g>
</svg>
